<svg xmlns="http://www.w3.org/2000/svg" xmlns:xlink="http://www.w3.org/1999/xlink" width="500" zoomAndPan="magnify" viewBox="0 0 375 262.499992" height="350" preserveAspectRatio="xMidYMid meet" version="1.2"><defs><clipPath id="87cb4b8e38"><path d="M 74.351562 45.214844 L 170.917969 45.214844 L 170.917969 98.726562 L 74.351562 98.726562 Z M 74.351562 45.214844 "/></clipPath><clipPath id="cf97e6e724"><path d="M 151.589844 45.214844 C 162.230469 45.214844 170.851562 57.195312 170.851562 71.972656 C 170.851562 86.746094 162.230469 98.726562 151.589844 98.726562 L 93.617188 98.726562 C 82.976562 98.726562 74.351562 86.746094 74.351562 71.972656 C 74.351562 57.195312 82.976562 45.214844 93.617188 45.214844 Z M 151.589844 45.214844 "/></clipPath><clipPath id="1e46305051"><path d="M 41.117188 68.671875 L 350.464844 68.671875 L 350.464844 242.339844 L 41.117188 242.339844 Z M 41.117188 68.671875 "/></clipPath><clipPath id="4e499a7e00"><path d="M 350.292969 92.625 L 350.292969 218.386719 C 350.292969 231.613281 339.566406 242.339844 326.335938 242.339844 L 65.070312 242.339844 C 51.84375 242.339844 41.117188 231.613281 41.117188 218.386719 L 41.117188 92.625 C 41.117188 79.394531 51.84375 68.671875 65.070312 68.671875 L 326.335938 68.671875 C 339.566406 68.671875 350.292969 79.394531 350.292969 92.625 Z M 350.292969 92.625 "/></clipPath><clipPath id="c9b6c55d8b"><path d="M 26.554688 202.148438 L 79.644531 202.148438 L 79.644531 255.234375 L 26.554688 255.234375 Z M 26.554688 202.148438 "/></clipPath><clipPath id="6347e917b1"><path d="M 53.101562 202.148438 C 38.441406 202.148438 26.554688 214.03125 26.554688 228.691406 C 26.554688 243.351562 38.441406 255.234375 53.101562 255.234375 C 67.761719 255.234375 79.644531 243.351562 79.644531 228.691406 C 79.644531 214.03125 67.761719 202.148438 53.101562 202.148438 Z M 53.101562 202.148438 "/></clipPath><clipPath id="56518de445"><path d="M 26.554688 202.148438 L 79.636719 202.148438 L 79.636719 255.226562 L 26.554688 255.226562 Z M 26.554688 202.148438 "/></clipPath><clipPath id="204b2f9cf4"><path d="M 53.097656 202.148438 C 38.4375 202.148438 26.554688 214.03125 26.554688 228.6875 C 26.554688 243.34375 38.4375 255.226562 53.097656 255.226562 C 67.753906 255.226562 79.636719 243.34375 79.636719 228.6875 C 79.636719 214.03125 67.753906 202.148438 53.097656 202.148438 Z M 53.097656 202.148438 "/></clipPath><clipPath id="493b0784e2"><path d="M 36.570312 212.164062 L 69.507812 212.164062 L 69.507812 245.101562 L 36.570312 245.101562 Z M 36.570312 212.164062 "/></clipPath><clipPath id="629b3de1ec"><path d="M 53.039062 212.164062 C 43.945312 212.164062 36.570312 219.535156 36.570312 228.632812 C 36.570312 237.726562 43.945312 245.101562 53.039062 245.101562 C 62.136719 245.101562 69.507812 237.726562 69.507812 228.632812 C 69.507812 219.535156 62.136719 212.164062 53.039062 212.164062 Z M 53.039062 212.164062 "/></clipPath><clipPath id="776094bc29"><path d="M 146.375 103 L 333 103 L 333 228.691406 L 146.375 228.691406 Z M 146.375 103 "/></clipPath><clipPath id="88afa27d37"><path d="M 164.921875 103 L 314.503906 103 C 319.421875 103 324.140625 104.957031 327.617188 108.433594 C 331.097656 111.914062 333.050781 116.628906 333.050781 121.550781 L 333.050781 210.144531 C 333.050781 215.0625 331.097656 219.78125 327.617188 223.257812 C 324.140625 226.738281 319.421875 228.691406 314.503906 228.691406 L 164.921875 228.691406 C 160.003906 228.691406 155.285156 226.738281 151.808594 223.257812 C 148.328125 219.78125 146.375 215.0625 146.375 210.144531 L 146.375 121.550781 C 146.375 116.628906 148.328125 111.914062 151.808594 108.433594 C 155.285156 104.957031 160.003906 103 164.921875 103 Z M 164.921875 103 "/></clipPath><clipPath id="9e2921b61d"><path d="M 146.375 103.003906 L 332.769531 103.003906 L 332.769531 228.761719 L 146.375 228.761719 Z M 146.375 103.003906 "/></clipPath><clipPath id="63e53d4e28"><path d="M 164.894531 103.003906 L 314.25 103.003906 C 319.164062 103.003906 323.875 104.957031 327.347656 108.429688 C 330.820312 111.902344 332.769531 116.613281 332.769531 121.523438 L 332.769531 209.988281 C 332.769531 214.898438 330.820312 219.609375 327.347656 223.082031 C 323.875 226.554688 319.164062 228.507812 314.25 228.507812 L 164.894531 228.507812 C 159.984375 228.507812 155.273438 226.554688 151.800781 223.082031 C 148.328125 219.609375 146.375 214.898438 146.375 209.988281 L 146.375 121.523438 C 146.375 116.613281 148.328125 111.902344 151.800781 108.429688 C 155.273438 104.957031 159.984375 103.003906 164.894531 103.003906 Z M 164.894531 103.003906 "/></clipPath><clipPath id="a560deadd5"><path d="M 296 46 L 360 46 L 360 92 L 296 92 Z M 296 46 "/></clipPath><clipPath id="109458941f"><path d="M 300.917969 43.222656 L 362.757812 54.652344 L 355.464844 94.132812 L 293.621094 82.703125 Z M 300.917969 43.222656 "/></clipPath><clipPath id="844eb01aec"><path d="M 345.511719 51.464844 C 354.980469 53.214844 361.027344 63.472656 359.011719 74.375 C 356.996094 85.277344 347.683594 92.695312 338.214844 90.945312 L 310.769531 85.875 C 301.296875 84.125 295.253906 73.867188 297.269531 62.964844 C 299.285156 52.0625 308.59375 44.644531 318.066406 46.394531 Z M 345.511719 51.464844 "/></clipPath><clipPath id="5a41af0ee0"><path d="M 301 49 L 355 49 L 355 88 L 301 88 Z M 301 49 "/></clipPath><clipPath id="c4601bf7ae"><path d="M 304.804688 47.394531 L 357.46875 57.128906 L 351.40625 89.933594 L 298.742188 80.199219 Z M 304.804688 47.394531 "/></clipPath><clipPath id="9f4bd96665"><path d="M 343.855469 54.613281 C 351.34375 55.996094 356.054688 64.460938 354.378906 73.519531 C 352.707031 82.578125 345.28125 88.800781 337.792969 87.417969 L 312.421875 82.726562 C 304.9375 81.34375 300.226562 72.878906 301.902344 63.820312 C 303.574219 54.761719 311 48.539062 318.488281 49.925781 Z M 343.855469 54.613281 "/></clipPath><clipPath id="ae486152cc"><path d="M 301 49 L 355 49 L 355 88 L 301 88 Z M 301 49 "/></clipPath><clipPath id="346f9e3583"><path d="M 304.933594 47.417969 L 357.195312 57.078125 L 351.074219 90.203125 L 298.808594 80.542969 Z M 304.933594 47.417969 "/></clipPath><clipPath id="f97c7a23bd"><path d="M 304.929688 47.421875 L 357.238281 57.089844 L 351.15625 89.992188 L 298.851562 80.324219 Z M 304.929688 47.421875 "/></clipPath><clipPath id="afa80e1350"><path d="M 343.695312 54.585938 C 351.152344 55.964844 355.84375 64.394531 354.175781 73.414062 C 352.507812 82.4375 345.113281 88.632812 337.660156 87.253906 L 312.390625 82.585938 C 304.9375 81.207031 300.246094 72.777344 301.914062 63.753906 C 303.578125 54.734375 310.976562 48.539062 318.429688 49.914062 Z M 343.695312 54.585938 "/></clipPath><clipPath id="34c582033b"><path d="M 43 222 L 61 222 L 61 235 L 43 235 Z M 43 222 "/></clipPath><clipPath id="52fa527a97"><path d="M 55.933594 239.347656 L 43.609375 233.910156 L 50.558594 218.15625 L 62.886719 223.597656 Z M 55.933594 239.347656 "/></clipPath><clipPath id="bf40da74e0"><path d="M 55.933594 239.347656 L 43.609375 233.910156 L 50.558594 218.15625 L 62.886719 223.597656 Z M 55.933594 239.347656 "/></clipPath><clipPath id="3300c8ea55"><path d="M 55.933594 239.347656 L 43.609375 233.910156 L 50.558594 218.15625 L 62.886719 223.597656 Z M 55.933594 239.347656 "/></clipPath><clipPath id="c71619bf56"><path d="M 41.117188 45.214844 L 132.996094 45.214844 L 132.996094 124.679688 L 41.117188 124.679688 Z M 41.117188 45.214844 "/></clipPath><clipPath id="002edee2fa"><path d="M 113.472656 45.214844 C 124.113281 45.214844 132.738281 63.003906 132.738281 84.949219 C 132.738281 106.890625 124.113281 124.679688 113.472656 124.679688 L 60.382812 124.679688 C 49.742188 124.679688 41.117188 106.890625 41.117188 84.949219 C 41.117188 63.003906 49.742188 45.214844 60.382812 45.214844 Z M 113.472656 45.214844 "/></clipPath></defs><g id="4c2dc3d26a"><g clip-rule="nonzero" clip-path="url(#87cb4b8e38)"><g clip-rule="nonzero" clip-path="url(#cf97e6e724)"><path style=" stroke:none;fill-rule:nonzero;fill:#7382ff;fill-opacity:1;" d="M 74.351562 45.214844 L 170.917969 45.214844 L 170.917969 98.726562 L 74.351562 98.726562 Z M 74.351562 45.214844 "/></g></g><g clip-rule="nonzero" clip-path="url(#1e46305051)"><g clip-rule="nonzero" clip-path="url(#4e499a7e00)"><path style=" stroke:none;fill-rule:nonzero;fill:#fbd75d;fill-opacity:1;" d="M 41.117188 68.671875 L 350.464844 68.671875 L 350.464844 242.339844 L 41.117188 242.339844 Z M 41.117188 68.671875 "/></g></g><g clip-rule="nonzero" clip-path="url(#c9b6c55d8b)"><g clip-rule="nonzero" clip-path="url(#6347e917b1)"><path style=" stroke:none;fill-rule:nonzero;fill:#edeaf8;fill-opacity:1;" d="M 26.554688 202.148438 L 79.644531 202.148438 L 79.644531 255.234375 L 26.554688 255.234375 Z M 26.554688 202.148438 "/></g></g><g clip-rule="nonzero" clip-path="url(#56518de445)"><g clip-rule="nonzero" clip-path="url(#204b2f9cf4)"><path style="fill:none;stroke-width:2;stroke-linecap:butt;stroke-linejoin:miter;stroke:#000000;stroke-opacity:1;stroke-miterlimit:4;" d="M 35.455533 0.000169127 C 15.871425 0.000169127 -0.00250477 15.874099 -0.00250477 35.452989 C -0.00250477 55.031879 15.871425 70.905809 35.455533 70.905809 C 55.034424 70.905809 70.908353 55.031879 70.908353 35.452989 C 70.908353 15.874099 55.034424 0.000169127 35.455533 0.000169127 Z M 35.455533 0.000169127 " transform="matrix(0.748574,0,0,0.748574,26.556563,202.148311)"/></g></g><g clip-rule="nonzero" clip-path="url(#493b0784e2)"><g clip-rule="nonzero" clip-path="url(#629b3de1ec)"><path style="fill:none;stroke-width:2;stroke-linecap:butt;stroke-linejoin:miter;stroke:#000000;stroke-opacity:1;stroke-miterlimit:4;" d="M 22.077144 0.00153869 C 9.885908 0.00153869 -0.00114213 9.883352 -0.00114213 22.079825 C -0.00114213 34.271061 9.885908 44.158111 22.077144 44.158111 C 34.273617 44.158111 44.155431 34.271061 44.155431 22.079825 C 44.155431 9.883352 34.273617 0.00153869 22.077144 0.00153869 Z M 22.077144 0.00153869 " transform="matrix(0.745925,0,0,0.745925,36.571164,212.162915)"/></g></g><g style="fill:#000000;fill-opacity:1;"><g transform="translate(52.738335, 249.000778)"><path style="stroke:none" d="M -2.359375 0.5 L -0.953125 0.640625 L -0.609375 -0.0625 L -0.15625 -0.015625 L -1.671875 3.109375 L -2.140625 3.0625 L -3 -0.296875 L -2.546875 -0.25 Z M -2.265625 0.859375 L -1.84375 2.5625 L -1.109375 0.984375 Z M -2.265625 0.859375 "/></g></g><g style="fill:#000000;fill-opacity:1;"><g transform="translate(49.702129, 248.653042)"><path style="stroke:none" d="M -1.4375 3.0625 L -0.78125 -0.15625 L -0.359375 -0.078125 L -1.015625 3.140625 Z M -1.4375 3.0625 "/></g></g><g style="fill:#000000;fill-opacity:1;"><g transform="translate(48.634798, 248.439007)"><path style="stroke:none" d=""/></g></g><g style="fill:#000000;fill-opacity:1;"><g transform="translate(47.515212, 248.233588)"><path style="stroke:none" d="M -4.484375 1 L -2.78125 -1.09375 L -2.375 -0.9375 L -2.53125 1.203125 L -1.21875 -0.484375 L -0.796875 -0.3125 L -1.015625 2.375 L -1.421875 2.203125 L -1.171875 -0.03125 L -2.546875 1.765625 L -2.953125 1.59375 L -2.75 -0.640625 L -4.09375 1.15625 Z M -4.484375 1 "/></g></g><g style="fill:#000000;fill-opacity:1;"><g transform="translate(44.10371, 246.870788)"><path style="stroke:none" d="M -0.84375 1 C -0.976562 1.226562 -1.140625 1.398438 -1.328125 1.515625 C -1.523438 1.640625 -1.726562 1.695312 -1.9375 1.6875 C -2.15625 1.6875 -2.363281 1.628906 -2.5625 1.515625 C -2.757812 1.398438 -2.90625 1.253906 -3 1.078125 C -3.09375 0.910156 -3.132812 0.742188 -3.125 0.578125 L -3.375 0.96875 L -3.734375 0.75 L -2.40625 -1.453125 L -2.046875 -1.234375 L -2.296875 -0.8125 C -2.128906 -0.894531 -1.945312 -0.9375 -1.75 -0.9375 C -1.5625 -0.945312 -1.375 -0.894531 -1.1875 -0.78125 C -0.988281 -0.664062 -0.835938 -0.507812 -0.734375 -0.3125 C -0.640625 -0.113281 -0.597656 0.0976562 -0.609375 0.328125 C -0.628906 0.554688 -0.707031 0.78125 -0.84375 1 Z M -2.71875 -0.125 C -2.8125 0.0390625 -2.859375 0.207031 -2.859375 0.375 C -2.867188 0.539062 -2.835938 0.6875 -2.765625 0.8125 C -2.691406 0.945312 -2.585938 1.054688 -2.453125 1.140625 C -2.304688 1.222656 -2.15625 1.265625 -2 1.265625 C -1.851562 1.273438 -1.710938 1.238281 -1.578125 1.15625 C -1.441406 1.070312 -1.320312 0.945312 -1.21875 0.78125 C -1.113281 0.613281 -1.054688 0.445312 -1.046875 0.28125 C -1.046875 0.113281 -1.078125 -0.0351562 -1.140625 -0.171875 C -1.210938 -0.304688 -1.320312 -0.414062 -1.46875 -0.5 C -1.601562 -0.582031 -1.75 -0.625 -1.90625 -0.625 C -2.0625 -0.625 -2.207031 -0.582031 -2.34375 -0.5 C -2.488281 -0.414062 -2.613281 -0.289062 -2.71875 -0.125 Z M -2.71875 -0.125 "/></g></g><g style="fill:#000000;fill-opacity:1;"><g transform="translate(41.50462, 245.270412)"><path style="stroke:none" d="M -2.0625 1.21875 L -1.125 0.015625 C -1.050781 -0.0859375 -1.019531 -0.175781 -1.03125 -0.25 C -1.039062 -0.320312 -1.097656 -0.394531 -1.203125 -0.46875 L -1.453125 -0.671875 L -1.234375 -0.953125 L -0.921875 -0.71875 C -0.734375 -0.570312 -0.625 -0.414062 -0.59375 -0.25 C -0.570312 -0.09375 -0.632812 0.0820312 -0.78125 0.28125 L -1.71875 1.484375 L -1.453125 1.6875 L -1.671875 1.96875 L -1.9375 1.765625 L -2.328125 2.265625 L -2.671875 2 L -2.28125 1.5 L -2.8125 1.09375 L -2.59375 0.8125 Z M -2.0625 1.21875 "/></g></g><g style="fill:#000000;fill-opacity:1;"><g transform="translate(40.21833, 244.327734)"><path style="stroke:none" d="M -1.03125 0.796875 C -1.21875 0.984375 -1.414062 1.113281 -1.625 1.1875 C -1.84375 1.257812 -2.0625 1.269531 -2.28125 1.21875 C -2.5 1.175781 -2.691406 1.070312 -2.859375 0.90625 C -3.097656 0.675781 -3.234375 0.429688 -3.265625 0.171875 C -3.304688 -0.078125 -3.253906 -0.320312 -3.109375 -0.5625 L -2.78125 -0.25 C -2.863281 -0.101562 -2.882812 0.0390625 -2.84375 0.1875 C -2.8125 0.34375 -2.726562 0.488281 -2.59375 0.625 C -2.425781 0.789062 -2.226562 0.863281 -2 0.84375 C -1.78125 0.832031 -1.566406 0.71875 -1.359375 0.5 C -1.148438 0.269531 -1.039062 0.0390625 -1.03125 -0.1875 C -1.019531 -0.414062 -1.097656 -0.613281 -1.265625 -0.78125 C -1.398438 -0.914062 -1.546875 -0.988281 -1.703125 -1 C -1.859375 -1.019531 -2.007812 -0.992188 -2.15625 -0.921875 L -2.484375 -1.234375 C -2.253906 -1.378906 -2.007812 -1.4375 -1.75 -1.40625 C -1.488281 -1.375 -1.242188 -1.25 -1.015625 -1.03125 C -0.847656 -0.863281 -0.726562 -0.675781 -0.65625 -0.46875 C -0.59375 -0.257812 -0.59375 -0.046875 -0.65625 0.171875 C -0.71875 0.390625 -0.84375 0.597656 -1.03125 0.796875 Z M -1.03125 0.796875 "/></g></g><g style="fill:#000000;fill-opacity:1;"><g transform="translate(38.248045, 242.470515)"><path style="stroke:none" d="M -3.0625 0.359375 C -3.1875 0.203125 -3.265625 0.0351562 -3.296875 -0.140625 C -3.335938 -0.316406 -3.316406 -0.488281 -3.234375 -0.65625 C -3.160156 -0.832031 -3.03125 -1 -2.84375 -1.15625 L -1.65625 -2.09375 L -1.40625 -1.765625 L -2.546875 -0.859375 C -2.742188 -0.703125 -2.851562 -0.523438 -2.875 -0.328125 C -2.90625 -0.140625 -2.851562 0.0351562 -2.71875 0.203125 C -2.570312 0.390625 -2.40625 0.488281 -2.21875 0.5 C -2.03125 0.507812 -1.828125 0.429688 -1.609375 0.265625 L -0.5 -0.625 L -0.21875 -0.28125 L -2.953125 1.890625 L -3.234375 1.546875 L -2.21875 0.75 C -2.382812 0.769531 -2.535156 0.742188 -2.671875 0.671875 C -2.816406 0.609375 -2.945312 0.503906 -3.0625 0.359375 Z M -3.0625 0.359375 "/></g></g><g style="fill:#000000;fill-opacity:1;"><g transform="translate(36.464704, 240.238493)"><path style="stroke:none" d="M -2.578125 -1.640625 C -2.503906 -1.679688 -2.425781 -1.71875 -2.34375 -1.75 L -1.296875 0.03125 C -1.078125 -0.113281 -0.945312 -0.289062 -0.90625 -0.5 C -0.863281 -0.71875 -0.898438 -0.925781 -1.015625 -1.125 C -1.109375 -1.269531 -1.222656 -1.375 -1.359375 -1.4375 C -1.503906 -1.5 -1.65625 -1.515625 -1.8125 -1.484375 L -2.03125 -1.875 C -1.78125 -1.945312 -1.535156 -1.9375 -1.296875 -1.84375 C -1.054688 -1.75 -0.859375 -1.570312 -0.703125 -1.3125 C -0.578125 -1.09375 -0.507812 -0.867188 -0.5 -0.640625 C -0.5 -0.421875 -0.5625 -0.210938 -0.6875 -0.015625 C -0.8125 0.179688 -0.988281 0.347656 -1.21875 0.484375 C -1.445312 0.617188 -1.675781 0.691406 -1.90625 0.703125 C -2.132812 0.722656 -2.34375 0.675781 -2.53125 0.5625 C -2.726562 0.445312 -2.890625 0.273438 -3.015625 0.046875 C -3.140625 -0.160156 -3.203125 -0.367188 -3.203125 -0.578125 C -3.203125 -0.796875 -3.144531 -1 -3.03125 -1.1875 C -2.925781 -1.375 -2.773438 -1.523438 -2.578125 -1.640625 Z M -2.4375 -1.203125 C -2.570312 -1.117188 -2.671875 -1.015625 -2.734375 -0.890625 C -2.804688 -0.773438 -2.832031 -0.648438 -2.8125 -0.515625 C -2.800781 -0.378906 -2.753906 -0.242188 -2.671875 -0.109375 C -2.566406 0.0664062 -2.414062 0.1875 -2.21875 0.25 C -2.03125 0.320312 -1.828125 0.304688 -1.609375 0.203125 Z M -2.4375 -1.203125 "/></g></g><g style="fill:#000000;fill-opacity:1;"><g transform="translate(35.04289, 237.870602)"><path style="stroke:none" d="M -1.28125 0.3125 C -1.519531 0.40625 -1.753906 0.441406 -1.984375 0.421875 C -2.210938 0.398438 -2.410156 0.320312 -2.578125 0.1875 C -2.742188 0.0625 -2.875 -0.109375 -2.96875 -0.328125 C -3.039062 -0.515625 -3.066406 -0.703125 -3.046875 -0.890625 C -3.035156 -1.085938 -2.972656 -1.257812 -2.859375 -1.40625 L -4.125 -0.875 L -4.296875 -1.265625 L -1.078125 -2.59375 L -0.90625 -2.203125 L -1.359375 -2.015625 C -1.179688 -1.992188 -1.015625 -1.925781 -0.859375 -1.8125 C -0.703125 -1.695312 -0.582031 -1.535156 -0.5 -1.328125 C -0.40625 -1.117188 -0.378906 -0.90625 -0.421875 -0.6875 C -0.460938 -0.476562 -0.554688 -0.285156 -0.703125 -0.109375 C -0.847656 0.0664062 -1.039062 0.207031 -1.28125 0.3125 Z M -2.109375 -1.703125 C -2.273438 -1.640625 -2.410156 -1.546875 -2.515625 -1.421875 C -2.628906 -1.296875 -2.695312 -1.15625 -2.71875 -1 C -2.738281 -0.84375 -2.71875 -0.691406 -2.65625 -0.546875 C -2.59375 -0.390625 -2.5 -0.265625 -2.375 -0.171875 C -2.25 -0.0859375 -2.109375 -0.0351562 -1.953125 -0.015625 C -1.796875 0.00390625 -1.628906 -0.0195312 -1.453125 -0.09375 C -1.265625 -0.175781 -1.113281 -0.28125 -1 -0.40625 C -0.894531 -0.53125 -0.832031 -0.664062 -0.8125 -0.8125 C -0.789062 -0.96875 -0.8125 -1.125 -0.875 -1.28125 C -0.9375 -1.425781 -1.03125 -1.546875 -1.15625 -1.640625 C -1.28125 -1.734375 -1.421875 -1.785156 -1.578125 -1.796875 C -1.742188 -1.816406 -1.921875 -1.785156 -2.109375 -1.703125 Z M -2.109375 -1.703125 "/></g></g><g style="fill:#000000;fill-opacity:1;"><g transform="translate(33.917576, 235.024462)"><path style="stroke:none" d=""/></g></g><g style="fill:#000000;fill-opacity:1;"><g transform="translate(33.576041, 233.878459)"><path style="stroke:none" d="M -3.046875 0.125 C -3.035156 0.207031 -3.050781 0.28125 -3.09375 0.34375 C -3.132812 0.40625 -3.1875 0.445312 -3.25 0.46875 C -3.332031 0.488281 -3.410156 0.476562 -3.484375 0.4375 C -3.554688 0.394531 -3.597656 0.332031 -3.609375 0.25 C -3.628906 0.164062 -3.617188 0.09375 -3.578125 0.03125 C -3.535156 -0.03125 -3.472656 -0.0703125 -3.390625 -0.09375 C -3.328125 -0.113281 -3.257812 -0.101562 -3.1875 -0.0625 C -3.113281 -0.0195312 -3.066406 0.0390625 -3.046875 0.125 Z M -2.703125 -0.1875 L -0.1875 -0.78125 L -0.078125 -0.34375 L -2.59375 0.25 Z M -2.703125 -0.1875 "/></g></g><g style="fill:#000000;fill-opacity:1;"><g transform="translate(33.318271, 232.828331)"><path style="stroke:none" d="M -2.328125 -0.515625 L -0.828125 -0.765625 C -0.710938 -0.785156 -0.632812 -0.820312 -0.59375 -0.875 C -0.550781 -0.9375 -0.539062 -1.03125 -0.5625 -1.15625 L -0.609375 -1.484375 L -0.25 -1.546875 L -0.1875 -1.15625 C -0.144531 -0.914062 -0.171875 -0.726562 -0.265625 -0.59375 C -0.359375 -0.46875 -0.523438 -0.382812 -0.765625 -0.34375 L -2.265625 -0.09375 L -2.203125 0.234375 L -2.5625 0.296875 L -2.625 -0.03125 L -3.25 0.078125 L -3.3125 -0.34375 L -2.6875 -0.453125 L -2.796875 -1.125 L -2.4375 -1.1875 Z M -2.328125 -0.515625 "/></g></g><g style="fill:#000000;fill-opacity:1;"><g transform="translate(33.060798, 231.209186)"><path style="stroke:none" d="M -0.015625 -0.5 C -0.00390625 -0.414062 -0.0234375 -0.34375 -0.078125 -0.28125 C -0.128906 -0.21875 -0.195312 -0.179688 -0.28125 -0.171875 C -0.363281 -0.160156 -0.4375 -0.179688 -0.5 -0.234375 C -0.5625 -0.285156 -0.597656 -0.351562 -0.609375 -0.4375 C -0.617188 -0.507812 -0.597656 -0.578125 -0.546875 -0.640625 C -0.492188 -0.703125 -0.425781 -0.738281 -0.34375 -0.75 C -0.257812 -0.757812 -0.1875 -0.738281 -0.125 -0.6875 C -0.0625 -0.632812 -0.0234375 -0.570312 -0.015625 -0.5 Z M -0.015625 -0.5 "/></g></g><g style="fill:#000000;fill-opacity:1;"><g transform="translate(32.963066, 230.28601)"><path style="stroke:none" d=""/></g></g><g style="fill:#000000;fill-opacity:1;"><g transform="translate(32.872388, 229.130618)"><path style="stroke:none" d="M -1.8125 -2.234375 L -1.453125 -2.21875 L -1.53125 -0.34375 L -1.890625 -0.359375 Z M -1.8125 -2.234375 "/></g></g><g style="fill:#000000;fill-opacity:1;"><g transform="translate(33.112865, 225.493862)"><path style="stroke:none" d="M -2.609375 -3.328125 L -0.84375 -1.828125 L 0.359375 -1.546875 L 0.265625 -1.125 L -0.9375 -1.40625 L -3.1875 -0.828125 L -3.078125 -1.28125 L -1.265625 -1.703125 L -2.71875 -2.859375 Z M -2.609375 -3.328125 "/></g></g><g style="fill:#000000;fill-opacity:1;"><g transform="translate(33.675358, 222.954872)"><path style="stroke:none" d="M 0.5625 -1.375 C 0.476562 -1.144531 0.347656 -0.957031 0.171875 -0.8125 C 0.00390625 -0.664062 -0.1875 -0.578125 -0.40625 -0.546875 C -0.632812 -0.515625 -0.878906 -0.546875 -1.140625 -0.640625 C -1.378906 -0.734375 -1.578125 -0.867188 -1.734375 -1.046875 C -1.890625 -1.234375 -1.976562 -1.4375 -2 -1.65625 C -2.03125 -1.875 -2.003906 -2.097656 -1.921875 -2.328125 C -1.835938 -2.554688 -1.707031 -2.742188 -1.53125 -2.890625 C -1.363281 -3.046875 -1.164062 -3.140625 -0.9375 -3.171875 C -0.707031 -3.203125 -0.472656 -3.171875 -0.234375 -3.078125 C 0.0234375 -2.984375 0.226562 -2.84375 0.375 -2.65625 C 0.519531 -2.476562 0.609375 -2.273438 0.640625 -2.046875 C 0.679688 -1.828125 0.65625 -1.601562 0.5625 -1.375 Z M 0.203125 -1.5 C 0.265625 -1.644531 0.285156 -1.789062 0.265625 -1.9375 C 0.242188 -2.09375 0.179688 -2.234375 0.078125 -2.359375 C -0.0234375 -2.492188 -0.175781 -2.597656 -0.375 -2.671875 C -0.5625 -2.742188 -0.738281 -2.765625 -0.90625 -2.734375 C -1.070312 -2.710938 -1.210938 -2.65625 -1.328125 -2.5625 C -1.441406 -2.46875 -1.523438 -2.347656 -1.578125 -2.203125 C -1.628906 -2.054688 -1.644531 -1.90625 -1.625 -1.75 C -1.601562 -1.601562 -1.539062 -1.46875 -1.4375 -1.34375 C -1.332031 -1.21875 -1.1875 -1.117188 -1 -1.046875 C -0.800781 -0.972656 -0.617188 -0.945312 -0.453125 -0.96875 C -0.285156 -0.988281 -0.144531 -1.046875 -0.03125 -1.140625 C 0.0703125 -1.234375 0.148438 -1.351562 0.203125 -1.5 Z M 0.203125 -1.5 "/></g></g><g style="fill:#000000;fill-opacity:1;"><g transform="translate(34.671081, 220.277169)"><path style="stroke:none" d="M -1 -3.546875 L 1.265625 -2.3125 L 1.0625 -1.953125 L 0.734375 -2.140625 C 0.796875 -2.003906 0.828125 -1.851562 0.828125 -1.6875 C 0.828125 -1.519531 0.785156 -1.359375 0.703125 -1.203125 C 0.609375 -1.023438 0.484375 -0.882812 0.328125 -0.78125 C 0.179688 -0.6875 0.0195312 -0.640625 -0.15625 -0.640625 C -0.34375 -0.640625 -0.546875 -0.695312 -0.765625 -0.8125 L -2.09375 -1.53125 L -1.890625 -1.90625 L -0.609375 -1.21875 C -0.390625 -1.09375 -0.1875 -1.050781 0 -1.09375 C 0.175781 -1.132812 0.320312 -1.253906 0.4375 -1.453125 C 0.539062 -1.660156 0.5625 -1.851562 0.5 -2.03125 C 0.4375 -2.21875 0.285156 -2.378906 0.046875 -2.515625 L -1.203125 -3.1875 Z M -1 -3.546875 "/></g></g><g style="fill:#000000;fill-opacity:1;"><g transform="translate(36.094804, 217.755687)"><path style="stroke:none" d=""/></g></g><g style="fill:#000000;fill-opacity:1;"><g transform="translate(36.76711, 216.770538)"><path style="stroke:none" d="M -2.015625 -2.296875 C -2.066406 -2.234375 -2.128906 -2.195312 -2.203125 -2.1875 C -2.285156 -2.1875 -2.351562 -2.207031 -2.40625 -2.25 C -2.476562 -2.300781 -2.519531 -2.363281 -2.53125 -2.4375 C -2.539062 -2.519531 -2.519531 -2.59375 -2.46875 -2.65625 C -2.414062 -2.71875 -2.351562 -2.75 -2.28125 -2.75 C -2.207031 -2.757812 -2.132812 -2.738281 -2.0625 -2.6875 C -2.007812 -2.644531 -1.972656 -2.582031 -1.953125 -2.5 C -1.941406 -2.425781 -1.960938 -2.359375 -2.015625 -2.296875 Z M 0.9375 -0.28125 C 1.113281 -0.144531 1.207031 0 1.21875 0.15625 C 1.238281 0.3125 1.179688 0.476562 1.046875 0.65625 L 0.890625 0.84375 L 0.609375 0.625 L 0.71875 0.5 C 0.789062 0.394531 0.820312 0.304688 0.8125 0.234375 C 0.800781 0.171875 0.753906 0.101562 0.671875 0.03125 L -1.8125 -1.875 L -1.5625 -2.203125 Z M 0.9375 -0.28125 "/></g></g><g style="fill:#000000;fill-opacity:1;"><g transform="translate(37.375537, 215.899039)"><path style="stroke:none" d="M -0.0625 -3.6875 L 1.8125 -1.921875 L 1.515625 -1.609375 L 1.25 -1.859375 C 1.28125 -1.722656 1.269531 -1.578125 1.21875 -1.421875 C 1.175781 -1.265625 1.09375 -1.125 0.96875 -1 C 0.832031 -0.851562 0.679688 -0.75 0.515625 -0.6875 C 0.347656 -0.625 0.175781 -0.613281 0 -0.65625 C -0.1875 -0.707031 -0.367188 -0.816406 -0.546875 -0.984375 L -1.640625 -2.015625 L -1.34375 -2.328125 L -0.28125 -1.328125 C -0.101562 -1.160156 0.078125 -1.070312 0.265625 -1.0625 C 0.453125 -1.050781 0.625 -1.128906 0.78125 -1.296875 C 0.9375 -1.460938 1.003906 -1.640625 0.984375 -1.828125 C 0.972656 -2.023438 0.867188 -2.21875 0.671875 -2.40625 L -0.359375 -3.375 Z M -0.0625 -3.6875 "/></g></g><g style="fill:#000000;fill-opacity:1;"><g transform="translate(39.346239, 213.814095)"><path style="stroke:none" d="M 1.015625 -0.78125 C 0.867188 -0.65625 0.710938 -0.566406 0.546875 -0.515625 C 0.378906 -0.472656 0.222656 -0.46875 0.078125 -0.5 C -0.0664062 -0.53125 -0.195312 -0.601562 -0.3125 -0.71875 L 0.015625 -1 C 0.117188 -0.914062 0.234375 -0.875 0.359375 -0.875 C 0.492188 -0.875 0.632812 -0.925781 0.78125 -1.03125 C 0.90625 -1.144531 0.976562 -1.257812 1 -1.375 C 1.03125 -1.488281 1.007812 -1.59375 0.9375 -1.6875 C 0.863281 -1.769531 0.769531 -1.800781 0.65625 -1.78125 C 0.550781 -1.757812 0.40625 -1.703125 0.21875 -1.609375 C 0.03125 -1.523438 -0.125 -1.460938 -0.25 -1.421875 C -0.382812 -1.390625 -0.515625 -1.382812 -0.640625 -1.40625 C -0.773438 -1.4375 -0.898438 -1.515625 -1.015625 -1.640625 C -1.085938 -1.734375 -1.125 -1.847656 -1.125 -1.984375 C -1.132812 -2.128906 -1.109375 -2.269531 -1.046875 -2.40625 C -0.984375 -2.550781 -0.878906 -2.6875 -0.734375 -2.8125 C -0.515625 -2.988281 -0.289062 -3.070312 -0.0625 -3.0625 C 0.164062 -3.0625 0.363281 -2.972656 0.53125 -2.796875 L 0.203125 -2.53125 C 0.109375 -2.625 0 -2.664062 -0.125 -2.65625 C -0.25 -2.65625 -0.378906 -2.601562 -0.515625 -2.5 C -0.628906 -2.394531 -0.695312 -2.289062 -0.71875 -2.1875 C -0.75 -2.09375 -0.734375 -2.003906 -0.671875 -1.921875 C -0.609375 -1.847656 -0.539062 -1.804688 -0.46875 -1.796875 C -0.394531 -1.796875 -0.316406 -1.804688 -0.234375 -1.828125 C -0.148438 -1.859375 -0.0351562 -1.90625 0.109375 -1.96875 C 0.285156 -2.039062 0.429688 -2.097656 0.546875 -2.140625 C 0.671875 -2.179688 0.796875 -2.1875 0.921875 -2.15625 C 1.046875 -2.132812 1.160156 -2.066406 1.265625 -1.953125 C 1.359375 -1.835938 1.410156 -1.710938 1.421875 -1.578125 C 1.429688 -1.453125 1.398438 -1.316406 1.328125 -1.171875 C 1.253906 -1.023438 1.148438 -0.894531 1.015625 -0.78125 Z M 1.015625 -0.78125 "/></g></g><g style="fill:#000000;fill-opacity:1;"><g transform="translate(41.165706, 212.334042)"><path style="stroke:none" d="M -0.5 -2.34375 L 0.34375 -1.078125 C 0.414062 -0.972656 0.488281 -0.910156 0.5625 -0.890625 C 0.632812 -0.878906 0.722656 -0.910156 0.828125 -0.984375 L 1.09375 -1.171875 L 1.296875 -0.875 L 0.96875 -0.65625 C 0.769531 -0.519531 0.585938 -0.460938 0.421875 -0.484375 C 0.265625 -0.503906 0.117188 -0.617188 -0.015625 -0.828125 L -0.859375 -2.09375 L -1.125 -1.90625 L -1.328125 -2.203125 L -1.0625 -2.390625 L -1.421875 -2.921875 L -1.0625 -3.171875 L -0.703125 -2.640625 L -0.140625 -3.015625 L 0.0625 -2.71875 Z M -0.5 -2.34375 "/></g></g><g style="fill:#000000;fill-opacity:1;"><g transform="translate(42.525261, 211.428447)"><path style="stroke:none" d=""/></g></g><g style="fill:#000000;fill-opacity:1;"><g transform="translate(43.50227, 210.816214)"><path style="stroke:none" d="M -0.34375 -1.265625 C -0.457031 -1.492188 -0.507812 -1.722656 -0.5 -1.953125 C -0.488281 -2.191406 -0.414062 -2.398438 -0.28125 -2.578125 C -0.144531 -2.753906 0.03125 -2.890625 0.25 -2.984375 C 0.539062 -3.117188 0.804688 -3.15625 1.046875 -3.09375 C 1.296875 -3.039062 1.507812 -2.90625 1.6875 -2.6875 L 1.265625 -2.5 C 1.171875 -2.625 1.046875 -2.695312 0.890625 -2.71875 C 0.734375 -2.75 0.570312 -2.722656 0.40625 -2.640625 C 0.1875 -2.546875 0.0390625 -2.390625 -0.03125 -2.171875 C -0.101562 -1.960938 -0.078125 -1.722656 0.046875 -1.453125 C 0.171875 -1.160156 0.335938 -0.96875 0.546875 -0.875 C 0.765625 -0.78125 0.984375 -0.78125 1.203125 -0.875 C 1.367188 -0.957031 1.488281 -1.066406 1.5625 -1.203125 C 1.644531 -1.335938 1.671875 -1.488281 1.640625 -1.65625 L 2.0625 -1.84375 C 2.101562 -1.570312 2.0625 -1.320312 1.9375 -1.09375 C 1.820312 -0.863281 1.625 -0.679688 1.34375 -0.546875 C 1.125 -0.453125 0.90625 -0.414062 0.6875 -0.4375 C 0.46875 -0.457031 0.265625 -0.535156 0.078125 -0.671875 C -0.0976562 -0.816406 -0.238281 -1.015625 -0.34375 -1.265625 Z M -0.34375 -1.265625 "/></g></g><g style="fill:#000000;fill-opacity:1;"><g transform="translate(45.959966, 209.68413)"><path style="stroke:none" d="M 0.828125 -2.984375 C 1.015625 -3.035156 1.195312 -3.046875 1.375 -3.015625 C 1.550781 -2.984375 1.703125 -2.898438 1.828125 -2.765625 C 1.960938 -2.628906 2.0625 -2.445312 2.125 -2.21875 L 2.5625 -0.765625 L 2.15625 -0.640625 L 1.75 -2.03125 C 1.664062 -2.28125 1.539062 -2.453125 1.375 -2.546875 C 1.21875 -2.640625 1.035156 -2.65625 0.828125 -2.59375 C 0.609375 -2.53125 0.457031 -2.410156 0.375 -2.234375 C 0.289062 -2.066406 0.285156 -1.851562 0.359375 -1.59375 L 0.765625 -0.234375 L 0.34375 -0.109375 L -0.640625 -3.453125 L -0.21875 -3.578125 L 0.140625 -2.34375 C 0.179688 -2.5 0.257812 -2.628906 0.375 -2.734375 C 0.488281 -2.847656 0.640625 -2.929688 0.828125 -2.984375 Z M 0.828125 -2.984375 "/></g></g><g style="fill:#000000;fill-opacity:1;"><g transform="translate(48.749819, 208.89678)"><path style="stroke:none" d="M -0.015625 -3.046875 C -0.0976562 -3.035156 -0.164062 -3.050781 -0.21875 -3.09375 C -0.28125 -3.144531 -0.316406 -3.207031 -0.328125 -3.28125 C -0.335938 -3.363281 -0.328125 -3.4375 -0.296875 -3.5 C -0.265625 -3.570312 -0.207031 -3.613281 -0.125 -3.625 C -0.0390625 -3.644531 0.03125 -3.628906 0.09375 -3.578125 C 0.164062 -3.523438 0.207031 -3.457031 0.21875 -3.375 C 0.226562 -3.300781 0.210938 -3.234375 0.171875 -3.171875 C 0.128906 -3.109375 0.0664062 -3.066406 -0.015625 -3.046875 Z M 0.296875 -2.6875 L 0.78125 -0.15625 L 0.359375 -0.0625 L -0.125 -2.59375 Z M 0.296875 -2.6875 "/></g></g><g style="fill:#000000;fill-opacity:1;"><g transform="translate(49.825815, 208.686785)"><path style="stroke:none" d="M 0.328125 -3.5625 L 0.796875 -0.109375 L 0.359375 -0.046875 L -0.109375 -3.5 Z M 0.328125 -3.5625 "/></g></g><g style="fill:#000000;fill-opacity:1;"><g transform="translate(50.911593, 208.535251)"><path style="stroke:none" d="M 0.5 -3.53125 L 0.796875 -0.0625 L 0.359375 -0.03125 L 0.0625 -3.5 Z M 0.5 -3.53125 "/></g></g><g style="fill:#000000;fill-opacity:1;"><g transform="translate(53.158123, 208.375905)"><path style="stroke:none" d="M 2.28125 -1.765625 L 2.25 -1.40625 L 0.375 -1.53125 L 0.40625 -1.890625 Z M 2.28125 -1.765625 "/></g></g><g style="fill:#000000;fill-opacity:1;"><g transform="translate(55.640743, 208.558369)"><path style="stroke:none" d=""/></g></g><g style="fill:#000000;fill-opacity:1;"><g transform="translate(56.794498, 208.708455)"><path style="stroke:none" d="M 2.921875 -2.671875 L 2.84375 -2.34375 L 1.46875 -2.671875 L 1.21875 -1.59375 L 2.328125 -1.328125 L 2.234375 -0.984375 L 1.125 -1.25 L 0.78125 0.1875 L 0.34375 0.078125 L 1.109375 -3.109375 Z M 2.921875 -2.671875 "/></g></g><g style="fill:#000000;fill-opacity:1;"><g transform="translate(58.972484, 209.207432)"><path style="stroke:none" d="M 3.390625 -1.46875 L 2.46875 0.9375 L 2.078125 0.796875 L 2.21875 0.453125 C 2.082031 0.535156 1.929688 0.582031 1.765625 0.59375 C 1.609375 0.613281 1.445312 0.59375 1.28125 0.53125 C 1.09375 0.457031 0.9375 0.351562 0.8125 0.21875 C 0.695312 0.0820312 0.628906 -0.0703125 0.609375 -0.25 C 0.585938 -0.4375 0.617188 -0.644531 0.703125 -0.875 L 1.25 -2.28125 L 1.640625 -2.140625 L 1.125 -0.78125 C 1.03125 -0.550781 1.015625 -0.347656 1.078125 -0.171875 C 1.140625 0.00390625 1.28125 0.132812 1.5 0.21875 C 1.707031 0.300781 1.898438 0.300781 2.078125 0.21875 C 2.253906 0.132812 2.390625 -0.03125 2.484375 -0.28125 L 3 -1.609375 Z M 3.390625 -1.46875 "/></g></g><g style="fill:#000000;fill-opacity:1;"><g transform="translate(61.65878, 210.260867)"><path style="stroke:none" d="M 1.8125 -1.5625 L 1.125 -0.21875 C 1.0625 -0.101562 1.039062 -0.0078125 1.0625 0.0625 C 1.082031 0.132812 1.144531 0.195312 1.25 0.25 L 1.546875 0.40625 L 1.390625 0.71875 L 1.046875 0.53125 C 0.828125 0.425781 0.691406 0.296875 0.640625 0.140625 C 0.585938 -0.015625 0.617188 -0.203125 0.734375 -0.421875 L 1.421875 -1.765625 L 1.125 -1.90625 L 1.28125 -2.234375 L 1.578125 -2.09375 L 1.875 -2.65625 L 2.265625 -2.453125 L 1.96875 -1.890625 L 2.5625 -1.578125 L 2.40625 -1.25 Z M 1.8125 -1.5625 "/></g></g><g style="fill:#000000;fill-opacity:1;"><g transform="translate(63.0955, 210.950286)"><path style="stroke:none" d="M 3.625 -0.703125 L 2.203125 1.453125 L 1.84375 1.21875 L 2.046875 0.90625 C 1.921875 0.96875 1.773438 0.988281 1.609375 0.96875 C 1.441406 0.945312 1.285156 0.890625 1.140625 0.796875 C 0.972656 0.691406 0.847656 0.554688 0.765625 0.390625 C 0.679688 0.234375 0.644531 0.0625 0.65625 -0.125 C 0.664062 -0.3125 0.738281 -0.503906 0.875 -0.703125 L 1.703125 -1.96875 L 2.0625 -1.734375 L 1.265625 -0.515625 C 1.117188 -0.304688 1.0625 -0.113281 1.09375 0.0625 C 1.125 0.25 1.234375 0.40625 1.421875 0.53125 C 1.617188 0.664062 1.804688 0.707031 1.984375 0.65625 C 2.160156 0.613281 2.328125 0.476562 2.484375 0.25 L 3.265625 -0.9375 Z M 3.625 -0.703125 "/></g></g><g style="fill:#000000;fill-opacity:1;"><g transform="translate(65.485723, 212.564866)"><path style="stroke:none" d="M 1.984375 -1.140625 C 2.140625 -1.210938 2.296875 -1.234375 2.453125 -1.203125 C 2.617188 -1.179688 2.78125 -1.101562 2.9375 -0.96875 L 2.65625 -0.625 L 2.5625 -0.703125 C 2.195312 -1.003906 1.847656 -0.957031 1.515625 -0.5625 L 0.609375 0.515625 L 0.28125 0.234375 L 1.9375 -1.75 L 2.265625 -1.46875 Z M 1.984375 -1.140625 "/></g></g><g style="fill:#000000;fill-opacity:1;"><g transform="translate(66.766416, 213.583691)"><path style="stroke:none" d="M 2.890625 0.984375 C 2.828125 1.046875 2.757812 1.109375 2.6875 1.171875 L 1.25 -0.3125 C 1.082031 -0.132812 1 0.0625 1 0.28125 C 1.007812 0.5 1.09375 0.6875 1.25 0.84375 C 1.375 0.976562 1.507812 1.054688 1.65625 1.078125 C 1.8125 1.109375 1.960938 1.097656 2.109375 1.046875 L 2.421875 1.375 C 2.191406 1.488281 1.945312 1.523438 1.6875 1.484375 C 1.4375 1.441406 1.207031 1.3125 1 1.09375 C 0.820312 0.914062 0.707031 0.722656 0.65625 0.515625 C 0.601562 0.304688 0.609375 0.0859375 0.671875 -0.140625 C 0.742188 -0.367188 0.878906 -0.578125 1.078125 -0.765625 C 1.265625 -0.941406 1.46875 -1.0625 1.6875 -1.125 C 1.90625 -1.1875 2.117188 -1.1875 2.328125 -1.125 C 2.546875 -1.0625 2.742188 -0.9375 2.921875 -0.75 C 3.085938 -0.570312 3.195312 -0.378906 3.25 -0.171875 C 3.300781 0.0351562 3.296875 0.238281 3.234375 0.4375 C 3.171875 0.644531 3.054688 0.828125 2.890625 0.984375 Z M 2.640625 0.609375 C 2.753906 0.503906 2.828125 0.382812 2.859375 0.25 C 2.898438 0.113281 2.898438 -0.015625 2.859375 -0.140625 C 2.816406 -0.273438 2.738281 -0.398438 2.625 -0.515625 C 2.488281 -0.660156 2.316406 -0.742188 2.109375 -0.765625 C 1.898438 -0.785156 1.695312 -0.71875 1.5 -0.5625 Z M 2.640625 0.609375 "/></g></g><g style="fill:#000000;fill-opacity:1;"><g transform="translate(68.688394, 215.584103)"><path style="stroke:none" d="M 2.8125 0.59375 L 2.53125 0.8125 L 1.421875 -0.703125 L 1.703125 -0.921875 Z M 2.8125 0.59375 "/></g></g><g style="fill:#000000;fill-opacity:1;"><g transform="translate(70.149299, 217.585291)"><path style="stroke:none" d="M 2.265625 -0.40625 C 2.429688 -0.425781 2.582031 -0.394531 2.71875 -0.3125 C 2.851562 -0.238281 2.972656 -0.117188 3.078125 0.046875 L 2.703125 0.28125 L 2.640625 0.1875 C 2.398438 -0.21875 2.054688 -0.289062 1.609375 -0.03125 L 0.40625 0.6875 L 0.1875 0.3125 L 2.40625 -1 L 2.625 -0.625 Z M 2.265625 -0.40625 "/></g></g><g style="fill:#000000;fill-opacity:1;"><g transform="translate(71.01769, 218.972139)"><path style="stroke:none" d="M 2.390625 1.890625 C 2.316406 1.929688 2.238281 1.96875 2.15625 2 L 1.296875 0.109375 C 1.066406 0.222656 0.914062 0.382812 0.84375 0.59375 C 0.78125 0.800781 0.796875 1.007812 0.890625 1.21875 C 0.960938 1.382812 1.066406 1.503906 1.203125 1.578125 C 1.335938 1.660156 1.476562 1.691406 1.625 1.671875 L 1.8125 2.09375 C 1.570312 2.132812 1.332031 2.09375 1.09375 1.96875 C 0.863281 1.84375 0.6875 1.640625 0.5625 1.359375 C 0.457031 1.140625 0.414062 0.921875 0.4375 0.703125 C 0.457031 0.484375 0.535156 0.28125 0.671875 0.09375 C 0.816406 -0.09375 1.015625 -0.238281 1.265625 -0.34375 C 1.492188 -0.457031 1.722656 -0.507812 1.953125 -0.5 C 2.191406 -0.488281 2.398438 -0.414062 2.578125 -0.28125 C 2.753906 -0.144531 2.894531 0.0351562 3 0.265625 C 3.101562 0.484375 3.144531 0.695312 3.125 0.90625 C 3.101562 1.125 3.023438 1.316406 2.890625 1.484375 C 2.765625 1.660156 2.597656 1.796875 2.390625 1.890625 Z M 2.28125 1.453125 C 2.425781 1.390625 2.539062 1.300781 2.625 1.1875 C 2.707031 1.070312 2.75 0.941406 2.75 0.796875 C 2.75 0.660156 2.710938 0.523438 2.640625 0.390625 C 2.554688 0.191406 2.421875 0.0507812 2.234375 -0.03125 C 2.046875 -0.113281 1.835938 -0.113281 1.609375 -0.03125 Z M 2.28125 1.453125 "/></g></g><g style="fill:#000000;fill-opacity:1;"><g transform="translate(72.178524, 221.478288)"><path style="stroke:none" d="M 1.3125 -0.171875 C 1.5625 -0.242188 1.796875 -0.253906 2.015625 -0.203125 C 2.234375 -0.160156 2.421875 -0.0664062 2.578125 0.078125 C 2.734375 0.222656 2.84375 0.40625 2.90625 0.625 C 2.976562 0.84375 2.988281 1.046875 2.9375 1.234375 C 2.894531 1.421875 2.816406 1.578125 2.703125 1.703125 L 3.140625 1.578125 L 3.25 1.984375 L 0.78125 2.703125 L 0.671875 2.296875 L 1.140625 2.15625 C 0.953125 2.113281 0.785156 2.023438 0.640625 1.890625 C 0.503906 1.765625 0.40625 1.59375 0.34375 1.375 C 0.28125 1.15625 0.273438 0.941406 0.328125 0.734375 C 0.390625 0.523438 0.503906 0.335938 0.671875 0.171875 C 0.847656 0.015625 1.0625 -0.0976562 1.3125 -0.171875 Z M 1.921875 1.9375 C 2.097656 1.882812 2.242188 1.796875 2.359375 1.671875 C 2.484375 1.554688 2.5625 1.425781 2.59375 1.28125 C 2.625 1.132812 2.617188 0.984375 2.578125 0.828125 C 2.535156 0.671875 2.457031 0.539062 2.34375 0.4375 C 2.238281 0.332031 2.101562 0.257812 1.9375 0.21875 C 1.78125 0.175781 1.609375 0.1875 1.421875 0.25 C 1.222656 0.300781 1.066406 0.382812 0.953125 0.5 C 0.847656 0.625 0.773438 0.757812 0.734375 0.90625 C 0.691406 1.050781 0.691406 1.203125 0.734375 1.359375 C 0.773438 1.515625 0.851562 1.644531 0.96875 1.75 C 1.09375 1.851562 1.234375 1.921875 1.390625 1.953125 C 1.546875 1.992188 1.722656 1.988281 1.921875 1.9375 Z M 1.921875 1.9375 "/></g></g><g style="fill:#000000;fill-opacity:1;"><g transform="translate(73.035505, 224.372263)"><path style="stroke:none" d="M 1.3125 0.03125 C 1.570312 -0.0078125 1.804688 0.00390625 2.015625 0.078125 C 2.234375 0.160156 2.40625 0.285156 2.53125 0.453125 C 2.664062 0.617188 2.75 0.820312 2.78125 1.0625 C 2.8125 1.257812 2.789062 1.453125 2.71875 1.640625 C 2.65625 1.828125 2.554688 1.976562 2.421875 2.09375 L 3.78125 1.90625 L 3.828125 2.3125 L 0.375 2.78125 L 0.328125 2.375 L 0.8125 2.3125 C 0.632812 2.238281 0.484375 2.125 0.359375 1.96875 C 0.242188 1.820312 0.171875 1.632812 0.140625 1.40625 C 0.109375 1.175781 0.132812 0.960938 0.21875 0.765625 C 0.3125 0.566406 0.453125 0.398438 0.640625 0.265625 C 0.828125 0.140625 1.050781 0.0625 1.3125 0.03125 Z M 1.609375 2.203125 C 1.796875 2.171875 1.957031 2.109375 2.09375 2.015625 C 2.226562 1.921875 2.320312 1.800781 2.375 1.65625 C 2.4375 1.507812 2.457031 1.359375 2.4375 1.203125 C 2.414062 1.035156 2.359375 0.890625 2.265625 0.765625 C 2.171875 0.648438 2.046875 0.5625 1.890625 0.5 C 1.742188 0.445312 1.570312 0.4375 1.375 0.46875 C 1.175781 0.488281 1.007812 0.546875 0.875 0.640625 C 0.75 0.734375 0.65625 0.847656 0.59375 0.984375 C 0.53125 1.128906 0.507812 1.285156 0.53125 1.453125 C 0.550781 1.609375 0.609375 1.75 0.703125 1.875 C 0.804688 2 0.929688 2.085938 1.078125 2.140625 C 1.234375 2.203125 1.410156 2.222656 1.609375 2.203125 Z M 1.609375 2.203125 "/></g></g><g style="fill:#000000;fill-opacity:1;"><g transform="translate(73.435614, 227.375431)"><path style="stroke:none" d="M 2.578125 2.578125 L -1.21875 1.03125 L -1.21875 0.59375 L 0.03125 1.09375 L 2.578125 0.0625 L 2.578125 0.53125 L 0.484375 1.34375 L 2.578125 2.140625 Z M 2.578125 2.578125 "/></g></g><g style="fill:#000000;fill-opacity:1;"><g transform="translate(73.407343, 229.918456)"><path style="stroke:none" d=""/></g></g><g style="fill:#000000;fill-opacity:1;"><g transform="translate(73.327567, 231.080037)"><path style="stroke:none" d="M -0.28125 1.25 C -0.238281 1.050781 -0.171875 0.878906 -0.078125 0.734375 C 0.015625 0.597656 0.125 0.492188 0.25 0.421875 C 0.382812 0.359375 0.535156 0.335938 0.703125 0.359375 L 0.625 0.78125 C 0.488281 0.769531 0.375 0.8125 0.28125 0.90625 C 0.1875 1 0.125 1.132812 0.09375 1.3125 C 0.0625 1.46875 0.0703125 1.597656 0.125 1.703125 C 0.175781 1.804688 0.257812 1.867188 0.375 1.890625 C 0.488281 1.910156 0.578125 1.875 0.640625 1.78125 C 0.710938 1.695312 0.789062 1.5625 0.875 1.375 C 0.96875 1.1875 1.050781 1.035156 1.125 0.921875 C 1.195312 0.804688 1.289062 0.71875 1.40625 0.65625 C 1.519531 0.59375 1.660156 0.578125 1.828125 0.609375 C 1.953125 0.628906 2.0625 0.6875 2.15625 0.78125 C 2.25 0.882812 2.3125 1.007812 2.34375 1.15625 C 2.382812 1.3125 2.390625 1.484375 2.359375 1.671875 C 2.304688 1.941406 2.191406 2.148438 2.015625 2.296875 C 1.847656 2.453125 1.640625 2.515625 1.390625 2.484375 L 1.46875 2.0625 C 1.601562 2.070312 1.71875 2.035156 1.8125 1.953125 C 1.90625 1.878906 1.96875 1.757812 2 1.59375 C 2.03125 1.4375 2.019531 1.304688 1.96875 1.203125 C 1.925781 1.097656 1.851562 1.039062 1.75 1.03125 C 1.65625 1.007812 1.578125 1.019531 1.515625 1.0625 C 1.453125 1.101562 1.394531 1.160156 1.34375 1.234375 C 1.300781 1.316406 1.253906 1.429688 1.203125 1.578125 C 1.117188 1.742188 1.039062 1.878906 0.96875 1.984375 C 0.90625 2.097656 0.816406 2.1875 0.703125 2.25 C 0.585938 2.3125 0.453125 2.332031 0.296875 2.3125 C 0.160156 2.289062 0.046875 2.226562 -0.046875 2.125 C -0.148438 2.03125 -0.222656 1.898438 -0.265625 1.734375 C -0.304688 1.578125 -0.3125 1.414062 -0.28125 1.25 Z M -0.28125 1.25 "/></g></g><g style="fill:#000000;fill-opacity:1;"><g transform="translate(72.942759, 233.363245)"><path style="stroke:none" d="M 1.65625 3.296875 L -0.796875 2.515625 L -0.671875 2.109375 L -0.3125 2.21875 C -0.40625 2.113281 -0.460938 1.976562 -0.484375 1.8125 C -0.515625 1.644531 -0.503906 1.476562 -0.453125 1.3125 C -0.390625 1.125 -0.296875 0.960938 -0.171875 0.828125 C -0.046875 0.703125 0.101562 0.625 0.28125 0.59375 C 0.46875 0.5625 0.675781 0.582031 0.90625 0.65625 L 2.34375 1.109375 L 2.21875 1.515625 L 0.84375 1.078125 C 0.601562 0.992188 0.394531 0.988281 0.21875 1.0625 C 0.0507812 1.144531 -0.0664062 1.296875 -0.140625 1.515625 C -0.203125 1.734375 -0.1875 1.921875 -0.09375 2.078125 C 0 2.242188 0.175781 2.367188 0.4375 2.453125 L 1.78125 2.890625 Z M 1.65625 3.296875 "/></g></g><g style="fill:#000000;fill-opacity:1;"><g transform="translate(72.188957, 236.084885)"><path style="stroke:none" d="M 0.671875 4.296875 C 0.585938 4.472656 0.46875 4.609375 0.3125 4.703125 C 0.164062 4.804688 0 4.859375 -0.1875 4.859375 C -0.375 4.859375 -0.570312 4.800781 -0.78125 4.6875 L -2.125 3.96875 L -1.921875 3.59375 L -0.640625 4.28125 C -0.410156 4.40625 -0.207031 4.441406 -0.03125 4.390625 C 0.144531 4.347656 0.285156 4.234375 0.390625 4.046875 C 0.492188 3.847656 0.515625 3.65625 0.453125 3.46875 C 0.390625 3.28125 0.238281 3.125 0 3 L -1.25 2.328125 L -1.046875 1.953125 L 0.234375 2.640625 C 0.460938 2.765625 0.664062 2.800781 0.84375 2.75 C 1.019531 2.707031 1.160156 2.59375 1.265625 2.40625 C 1.367188 2.207031 1.390625 2.015625 1.328125 1.828125 C 1.265625 1.648438 1.113281 1.5 0.875 1.375 L -0.375 0.703125 L -0.171875 0.3125 L 2.109375 1.53125 L 1.90625 1.921875 L 1.5625 1.734375 C 1.644531 1.878906 1.6875 2.03125 1.6875 2.1875 C 1.6875 2.34375 1.644531 2.5 1.5625 2.65625 C 1.457031 2.84375 1.320312 2.984375 1.15625 3.078125 C 0.988281 3.179688 0.804688 3.226562 0.609375 3.21875 C 0.734375 3.363281 0.800781 3.53125 0.8125 3.71875 C 0.820312 3.914062 0.773438 4.109375 0.671875 4.296875 Z M 0.671875 4.296875 "/></g></g><g style="fill:#000000;fill-opacity:1;"><g transform="translate(70.040844, 240.165703)"><path style="stroke:none" d="M -0.296875 4.328125 C -0.421875 4.484375 -0.566406 4.59375 -0.734375 4.65625 C -0.898438 4.71875 -1.078125 4.726562 -1.265625 4.6875 C -1.453125 4.644531 -1.632812 4.546875 -1.8125 4.390625 L -2.953125 3.390625 L -2.671875 3.078125 L -1.578125 4.03125 C -1.378906 4.207031 -1.1875 4.289062 -1 4.28125 C -0.820312 4.28125 -0.660156 4.195312 -0.515625 4.03125 C -0.367188 3.863281 -0.304688 3.679688 -0.328125 3.484375 C -0.347656 3.285156 -0.457031 3.097656 -0.65625 2.921875 L -1.734375 1.984375 L -1.453125 1.671875 L -0.359375 2.625 C -0.160156 2.800781 0.0234375 2.882812 0.203125 2.875 C 0.390625 2.875 0.554688 2.789062 0.703125 2.625 C 0.847656 2.457031 0.90625 2.273438 0.875 2.078125 C 0.851562 1.890625 0.742188 1.707031 0.546875 1.53125 L -0.53125 0.59375 L -0.234375 0.265625 L 1.703125 1.953125 L 1.40625 2.28125 L 1.125 2.046875 C 1.175781 2.191406 1.1875 2.34375 1.15625 2.5 C 1.125 2.65625 1.046875 2.800781 0.921875 2.9375 C 0.785156 3.09375 0.625 3.203125 0.4375 3.265625 C 0.25 3.328125 0.0625 3.328125 -0.125 3.265625 C -0.0390625 3.441406 -0.015625 3.625 -0.046875 3.8125 C -0.078125 4 -0.160156 4.171875 -0.296875 4.328125 Z M -0.296875 4.328125 "/></g></g><g style="fill:#000000;fill-opacity:1;"><g transform="translate(66.949558, 243.623613)"><path style="stroke:none" d="M 0.640625 1.140625 C 0.804688 1.347656 0.910156 1.5625 0.953125 1.78125 C 0.992188 2.007812 0.972656 2.222656 0.890625 2.421875 C 0.816406 2.628906 0.6875 2.800781 0.5 2.9375 C 0.320312 3.082031 0.140625 3.164062 -0.046875 3.1875 C -0.242188 3.21875 -0.421875 3.203125 -0.578125 3.140625 L -0.28125 3.515625 L -0.609375 3.765625 L -2.203125 1.734375 L -1.875 1.484375 L -1.578125 1.859375 C -1.597656 1.679688 -1.570312 1.5 -1.5 1.3125 C -1.4375 1.132812 -1.320312 0.976562 -1.15625 0.84375 C -0.96875 0.707031 -0.765625 0.625 -0.546875 0.59375 C -0.328125 0.5625 -0.113281 0.59375 0.09375 0.6875 C 0.300781 0.789062 0.484375 0.941406 0.640625 1.140625 Z M -1.078125 2.5 C -0.960938 2.644531 -0.828125 2.75 -0.671875 2.8125 C -0.515625 2.875 -0.359375 2.894531 -0.203125 2.875 C -0.0546875 2.851562 0.078125 2.796875 0.203125 2.703125 C 0.328125 2.597656 0.414062 2.472656 0.46875 2.328125 C 0.53125 2.191406 0.546875 2.039062 0.515625 1.875 C 0.492188 1.71875 0.421875 1.5625 0.296875 1.40625 C 0.179688 1.25 0.046875 1.140625 -0.109375 1.078125 C -0.265625 1.015625 -0.414062 0.992188 -0.5625 1.015625 C -0.71875 1.035156 -0.859375 1.097656 -0.984375 1.203125 C -1.109375 1.296875 -1.195312 1.410156 -1.25 1.546875 C -1.3125 1.691406 -1.328125 1.847656 -1.296875 2.015625 C -1.265625 2.179688 -1.191406 2.34375 -1.078125 2.5 Z M -1.078125 2.5 "/></g></g><g style="fill:#000000;fill-opacity:1;"><g transform="translate(64.530789, 245.482822)"><path style="stroke:none" d="M 0.453125 2.265625 C 0.472656 2.410156 0.441406 2.554688 0.359375 2.703125 C 0.285156 2.859375 0.160156 2.984375 -0.015625 3.078125 L -0.25 2.703125 L -0.15625 2.65625 C 0.257812 2.40625 0.332031 2.0625 0.0625 1.625 L -0.671875 0.421875 L -0.3125 0.1875 L 1.03125 2.390625 L 0.671875 2.625 Z M 0.453125 2.265625 "/></g></g><g style="fill:#000000;fill-opacity:1;"><g transform="translate(63.095216, 246.355568)"><path style="stroke:none" d="M 0.875 2.921875 C 0.945312 2.878906 1.019531 2.875 1.09375 2.90625 C 1.164062 2.9375 1.222656 2.984375 1.265625 3.046875 C 1.296875 3.117188 1.300781 3.191406 1.28125 3.265625 C 1.257812 3.335938 1.210938 3.394531 1.140625 3.4375 C 1.066406 3.476562 0.992188 3.484375 0.921875 3.453125 C 0.847656 3.429688 0.796875 3.382812 0.765625 3.3125 C 0.722656 3.25 0.710938 3.175781 0.734375 3.09375 C 0.753906 3.019531 0.800781 2.960938 0.875 2.921875 Z M 0.5 2.65625 L -0.703125 0.375 L -0.3125 0.171875 L 0.890625 2.453125 Z M 0.5 2.65625 "/></g></g><g style="fill:#000000;fill-opacity:1;"><g transform="translate(62.187588, 246.885907)"><path style="stroke:none" d="M -1.984375 2.3125 C -2.015625 2.238281 -2.046875 2.15625 -2.078125 2.0625 L -0.171875 1.296875 C -0.273438 1.054688 -0.425781 0.898438 -0.625 0.828125 C -0.832031 0.765625 -1.039062 0.773438 -1.25 0.859375 C -1.414062 0.921875 -1.539062 1.015625 -1.625 1.140625 C -1.707031 1.265625 -1.75 1.40625 -1.75 1.5625 L -2.15625 1.734375 C -2.195312 1.484375 -2.148438 1.242188 -2.015625 1.015625 C -1.878906 0.796875 -1.671875 0.628906 -1.390625 0.515625 C -1.160156 0.421875 -0.929688 0.390625 -0.703125 0.421875 C -0.484375 0.453125 -0.285156 0.539062 -0.109375 0.6875 C 0.0664062 0.832031 0.203125 1.03125 0.296875 1.28125 C 0.398438 1.519531 0.441406 1.75 0.421875 1.96875 C 0.398438 2.195312 0.320312 2.398438 0.1875 2.578125 C 0.0507812 2.753906 -0.132812 2.894531 -0.375 3 C -0.59375 3.09375 -0.8125 3.117188 -1.03125 3.078125 C -1.25 3.046875 -1.441406 2.960938 -1.609375 2.828125 C -1.773438 2.703125 -1.898438 2.53125 -1.984375 2.3125 Z M -1.53125 2.234375 C -1.46875 2.378906 -1.382812 2.492188 -1.28125 2.578125 C -1.175781 2.660156 -1.054688 2.703125 -0.921875 2.703125 C -0.785156 2.710938 -0.644531 2.6875 -0.5 2.625 C -0.3125 2.550781 -0.164062 2.421875 -0.0625 2.234375 C 0.03125 2.046875 0.0390625 1.84375 -0.03125 1.625 Z M -1.53125 2.234375 "/></g></g><g style="fill:#000000;fill-opacity:1;"><g transform="translate(59.610348, 247.931807)"><path style="stroke:none" d="M -1.25 0.28125 C -1.0625 0.226562 -0.878906 0.21875 -0.703125 0.25 C -0.535156 0.28125 -0.390625 0.335938 -0.265625 0.421875 C -0.140625 0.515625 -0.0625 0.632812 -0.03125 0.78125 L -0.453125 0.890625 C -0.492188 0.773438 -0.578125 0.691406 -0.703125 0.640625 C -0.828125 0.585938 -0.972656 0.582031 -1.140625 0.625 C -1.304688 0.664062 -1.421875 0.734375 -1.484375 0.828125 C -1.554688 0.929688 -1.578125 1.035156 -1.546875 1.140625 C -1.515625 1.253906 -1.445312 1.320312 -1.34375 1.34375 C -1.238281 1.375 -1.078125 1.390625 -0.859375 1.390625 C -0.648438 1.378906 -0.484375 1.382812 -0.359375 1.40625 C -0.234375 1.425781 -0.113281 1.472656 0 1.546875 C 0.113281 1.617188 0.195312 1.738281 0.25 1.90625 C 0.28125 2.019531 0.265625 2.144531 0.203125 2.28125 C 0.148438 2.414062 0.0664062 2.53125 -0.046875 2.625 C -0.160156 2.726562 -0.304688 2.800781 -0.484375 2.84375 C -0.753906 2.914062 -0.992188 2.90625 -1.203125 2.8125 C -1.421875 2.71875 -1.566406 2.550781 -1.640625 2.3125 L -1.234375 2.203125 C -1.191406 2.335938 -1.113281 2.425781 -1 2.46875 C -0.882812 2.519531 -0.742188 2.523438 -0.578125 2.484375 C -0.429688 2.441406 -0.320312 2.378906 -0.25 2.296875 C -0.175781 2.210938 -0.148438 2.125 -0.171875 2.03125 C -0.203125 1.9375 -0.25 1.867188 -0.3125 1.828125 C -0.375 1.785156 -0.453125 1.757812 -0.546875 1.75 C -0.640625 1.75 -0.757812 1.75 -0.90625 1.75 C -1.09375 1.75 -1.253906 1.738281 -1.390625 1.71875 C -1.523438 1.707031 -1.640625 1.664062 -1.734375 1.59375 C -1.828125 1.519531 -1.898438 1.40625 -1.953125 1.25 C -1.992188 1.113281 -1.988281 0.984375 -1.9375 0.859375 C -1.894531 0.734375 -1.8125 0.617188 -1.6875 0.515625 C -1.570312 0.410156 -1.425781 0.332031 -1.25 0.28125 Z M -1.25 0.28125 "/></g></g><g style="fill:#000000;fill-opacity:1;"><g transform="translate(57.333912, 248.521576)"><path style="stroke:none" d=""/></g></g><g style="fill:#000000;fill-opacity:1;"><g transform="translate(56.199029, 248.758071)"><path style="stroke:none" d="M -1.984375 2.09375 L -2.015625 1.734375 L -0.15625 1.578125 L -0.125 1.9375 Z M -1.984375 2.09375 "/></g></g><g clip-rule="nonzero" clip-path="url(#776094bc29)"><g clip-rule="nonzero" clip-path="url(#88afa27d37)"><path style=" stroke:none;fill-rule:nonzero;fill:#edeaf8;fill-opacity:1;" d="M 146.375 103 L 332.949219 103 L 332.949219 228.691406 L 146.375 228.691406 Z M 146.375 103 "/></g></g><g clip-rule="nonzero" clip-path="url(#9e2921b61d)"><g clip-rule="nonzero" clip-path="url(#63e53d4e28)"><path style=" stroke:none;fill-rule:nonzero;fill:#000000;fill-opacity:1;" d="M 169.082031 102.40625 L 172.667969 102.40625 L 172.667969 103.601562 L 169.082031 103.601562 Z M 173.265625 102.40625 L 176.855469 102.40625 L 176.855469 103.601562 L 173.265625 103.601562 Z M 177.453125 102.40625 L 181.042969 102.40625 L 181.042969 103.601562 L 177.453125 103.601562 Z M 181.640625 102.40625 L 185.226562 102.40625 L 185.226562 103.601562 L 181.640625 103.601562 Z M 185.824219 102.40625 L 189.414062 102.40625 L 189.414062 103.601562 L 185.824219 103.601562 Z M 190.011719 102.40625 L 193.597656 102.40625 L 193.597656 103.601562 L 190.011719 103.601562 Z M 194.195312 102.40625 L 197.785156 102.40625 L 197.785156 103.601562 L 194.195312 103.601562 Z M 198.382812 102.40625 L 201.972656 102.40625 L 201.972656 103.601562 L 198.382812 103.601562 Z M 202.570312 102.40625 L 206.15625 102.40625 L 206.15625 103.601562 L 202.570312 103.601562 Z M 206.753906 102.40625 L 210.34375 102.40625 L 210.34375 103.601562 L 206.753906 103.601562 Z M 210.941406 102.40625 L 214.527344 102.40625 L 214.527344 103.601562 L 210.941406 103.601562 Z M 215.128906 102.40625 L 218.714844 102.40625 L 218.714844 103.601562 L 215.128906 103.601562 Z M 219.3125 102.40625 L 222.902344 102.40625 L 222.902344 103.601562 L 219.3125 103.601562 Z M 223.5 102.40625 L 227.085938 102.40625 L 227.085938 103.601562 L 223.5 103.601562 Z M 227.683594 102.40625 L 231.273438 102.40625 L 231.273438 103.601562 L 227.683594 103.601562 Z M 231.871094 102.40625 L 235.457031 102.40625 L 235.457031 103.601562 L 231.871094 103.601562 Z M 236.058594 102.40625 L 239.644531 102.40625 L 239.644531 103.601562 L 236.058594 103.601562 Z M 240.242188 102.40625 L 243.832031 102.40625 L 243.832031 103.601562 L 240.242188 103.601562 Z M 244.429688 102.40625 L 248.015625 102.40625 L 248.015625 103.601562 L 244.429688 103.601562 Z M 248.613281 102.40625 L 252.203125 102.40625 L 252.203125 103.601562 L 248.613281 103.601562 Z M 252.800781 102.40625 L 256.390625 102.40625 L 256.390625 103.601562 L 252.800781 103.601562 Z M 256.988281 102.40625 L 260.574219 102.40625 L 260.574219 103.601562 L 256.988281 103.601562 Z M 261.171875 102.40625 L 264.761719 102.40625 L 264.761719 103.601562 L 261.171875 103.601562 Z M 265.359375 102.40625 L 268.945312 102.40625 L 268.945312 103.601562 L 265.359375 103.601562 Z M 269.542969 102.40625 L 273.132812 102.40625 L 273.132812 103.601562 L 269.542969 103.601562 Z M 273.730469 102.40625 L 277.320312 102.40625 L 277.320312 103.601562 L 273.730469 103.601562 Z M 277.917969 102.40625 L 281.503906 102.40625 L 281.503906 103.601562 L 277.917969 103.601562 Z M 282.101562 102.40625 L 285.691406 102.40625 L 285.691406 103.601562 L 282.101562 103.601562 Z M 286.289062 102.40625 L 289.875 102.40625 L 289.875 103.601562 L 286.289062 103.601562 Z M 290.472656 102.40625 L 294.0625 102.40625 L 294.0625 103.601562 L 290.472656 103.601562 Z M 294.660156 102.40625 L 298.25 102.40625 L 298.25 103.601562 L 294.660156 103.601562 Z M 298.847656 102.40625 L 302.433594 102.40625 L 302.433594 103.601562 L 298.847656 103.601562 Z M 303.03125 102.40625 L 306.621094 102.40625 L 306.621094 103.601562 L 303.03125 103.601562 Z M 307.21875 102.40625 L 310.804688 102.40625 L 310.804688 103.601562 L 307.21875 103.601562 Z M 311.40625 102.40625 L 314.25 102.40625 C 314.507812 102.40625 314.765625 102.414062 315.023438 102.421875 L 314.972656 103.617188 C 314.734375 103.609375 314.492188 103.601562 314.25 103.601562 L 311.40625 103.601562 Z M 315.640625 102.457031 C 316.875 102.546875 318.09375 102.757812 319.289062 103.082031 L 318.972656 104.238281 C 317.851562 103.929688 316.710938 103.734375 315.554688 103.652344 Z M 319.882812 103.253906 C 321.066406 103.621094 322.203125 104.09375 323.292969 104.683594 L 322.730469 105.734375 C 321.707031 105.1875 320.640625 104.742188 319.527344 104.398438 Z M 323.835938 104.984375 C 324.90625 105.605469 325.910156 106.324219 326.839844 107.140625 L 326.054688 108.039062 C 325.179688 107.273438 324.242188 106.601562 323.234375 106.019531 Z M 327.300781 107.554688 C 327.460938 107.703125 327.617188 107.855469 327.769531 108.007812 C 328.492188 108.730469 329.15625 109.507812 329.753906 110.339844 L 328.785156 111.039062 C 328.222656 110.261719 327.601562 109.53125 326.921875 108.851562 C 326.78125 108.707031 326.632812 108.566406 326.484375 108.429688 Z M 330.105469 110.84375 C 330.800781 111.875 331.386719 112.960938 331.867188 114.101562 L 330.765625 114.566406 C 330.316406 113.496094 329.765625 112.476562 329.117188 111.511719 Z M 332.097656 114.675781 C 332.542969 115.832031 332.871094 117.023438 333.085938 118.242188 L 331.90625 118.449219 C 331.707031 117.304688 331.398438 116.1875 330.984375 115.105469 Z M 333.179688 118.851562 C 333.304688 119.738281 333.367188 120.628906 333.367188 121.523438 L 333.367188 122.523438 L 332.171875 122.523438 L 332.171875 121.523438 C 332.171875 120.683594 332.113281 119.851562 331.996094 119.019531 Z M 333.367188 123.121094 L 333.367188 126.710938 L 332.171875 126.710938 L 332.171875 123.121094 Z M 333.367188 127.308594 L 333.367188 130.894531 L 332.171875 130.894531 L 332.171875 127.308594 Z M 333.367188 131.496094 L 333.367188 135.082031 L 332.171875 135.082031 L 332.171875 131.496094 Z M 333.367188 135.679688 L 333.367188 139.269531 L 332.171875 139.269531 L 332.171875 135.679688 Z M 333.367188 139.867188 L 333.367188 143.453125 L 332.171875 143.453125 L 332.171875 139.867188 Z M 333.367188 144.050781 L 333.367188 147.640625 L 332.171875 147.640625 L 332.171875 144.050781 Z M 333.367188 148.238281 L 333.367188 151.824219 L 332.171875 151.824219 L 332.171875 148.238281 Z M 333.367188 152.425781 L 333.367188 156.011719 L 332.171875 156.011719 L 332.171875 152.425781 Z M 333.367188 156.609375 L 333.367188 160.199219 L 332.171875 160.199219 L 332.171875 156.609375 Z M 333.367188 160.796875 L 333.367188 164.382812 L 332.171875 164.382812 L 332.171875 160.796875 Z M 333.367188 164.980469 L 333.367188 168.570312 L 332.171875 168.570312 L 332.171875 164.980469 Z M 333.367188 169.167969 L 333.367188 172.757812 L 332.171875 172.757812 L 332.171875 169.167969 Z M 333.367188 173.355469 L 333.367188 176.941406 L 332.171875 176.941406 L 332.171875 173.355469 Z M 333.367188 177.539062 L 333.367188 181.128906 L 332.171875 181.128906 L 332.171875 177.539062 Z M 333.367188 181.726562 L 333.367188 185.3125 L 332.171875 185.3125 L 332.171875 181.726562 Z M 333.367188 185.910156 L 333.367188 189.5 L 332.171875 189.5 L 332.171875 185.910156 Z M 333.367188 190.097656 L 333.367188 193.6875 L 332.171875 193.6875 L 332.171875 190.097656 Z M 333.367188 194.285156 L 333.367188 197.871094 L 332.171875 197.871094 L 332.171875 194.285156 Z M 333.367188 198.46875 L 333.367188 202.058594 L 332.171875 202.058594 L 332.171875 198.46875 Z M 333.367188 202.65625 L 333.367188 206.242188 L 332.171875 206.242188 L 332.171875 202.65625 Z M 333.367188 206.839844 L 333.367188 209.988281 C 333.367188 210.140625 333.367188 210.292969 333.363281 210.449219 L 332.167969 210.417969 C 332.171875 210.273438 332.171875 210.132812 332.171875 209.988281 L 332.171875 206.839844 Z M 333.339844 211.070312 C 333.269531 212.304688 333.078125 213.523438 332.773438 214.726562 L 331.613281 214.429688 C 331.902344 213.304688 332.078125 212.160156 332.144531 211 Z M 332.609375 215.320312 C 332.261719 216.511719 331.804688 217.65625 331.238281 218.757812 L 330.175781 218.210938 C 330.707031 217.175781 331.136719 216.101562 331.460938 214.988281 Z M 330.945312 219.300781 C 330.34375 220.382812 329.640625 221.398438 328.839844 222.34375 L 327.925781 221.570312 C 328.675781 220.683594 329.335938 219.734375 329.902344 218.71875 Z M 328.429688 222.808594 C 328.214844 223.046875 327.996094 223.277344 327.769531 223.503906 C 327.117188 224.15625 326.421875 224.757812 325.683594 225.308594 L 324.96875 224.351562 C 325.660156 223.835938 326.3125 223.269531 326.921875 222.660156 C 327.136719 222.449219 327.34375 222.230469 327.542969 222.007812 Z M 325.183594 225.667969 C 324.167969 226.378906 323.09375 226.984375 321.957031 227.484375 L 321.476562 226.386719 C 322.539062 225.921875 323.546875 225.351562 324.5 224.6875 Z M 321.386719 227.722656 C 320.238281 228.1875 319.054688 228.535156 317.835938 228.765625 L 317.609375 227.589844 C 318.753906 227.375 319.863281 227.046875 320.941406 226.613281 Z M 317.230469 228.871094 C 316.242188 229.027344 315.25 229.105469 314.25 229.105469 L 313.550781 229.105469 L 313.550781 227.910156 L 314.25 227.910156 C 315.1875 227.910156 316.117188 227.835938 317.042969 227.691406 Z M 312.953125 229.105469 L 309.363281 229.105469 L 309.363281 227.910156 L 312.953125 227.910156 Z M 308.765625 229.105469 L 305.179688 229.105469 L 305.179688 227.910156 L 308.765625 227.910156 Z M 304.582031 229.105469 L 300.992188 229.105469 L 300.992188 227.910156 L 304.582031 227.910156 Z M 300.394531 229.105469 L 296.808594 229.105469 L 296.808594 227.910156 L 300.394531 227.910156 Z M 296.207031 229.105469 L 292.621094 229.105469 L 292.621094 227.910156 L 296.207031 227.910156 Z M 292.023438 229.105469 L 288.433594 229.105469 L 288.433594 227.910156 L 292.023438 227.910156 Z M 287.835938 229.105469 L 284.25 229.105469 L 284.25 227.910156 L 287.835938 227.910156 Z M 283.652344 229.105469 L 280.0625 229.105469 L 280.0625 227.910156 L 283.652344 227.910156 Z M 279.464844 229.105469 L 275.878906 229.105469 L 275.878906 227.910156 L 279.464844 227.910156 Z M 275.277344 229.105469 L 271.691406 229.105469 L 271.691406 227.910156 L 275.277344 227.910156 Z M 271.09375 229.105469 L 267.503906 229.105469 L 267.503906 227.910156 L 271.09375 227.910156 Z M 266.90625 229.105469 L 263.320312 229.105469 L 263.320312 227.910156 L 266.90625 227.910156 Z M 262.722656 229.105469 L 259.132812 229.105469 L 259.132812 227.910156 L 262.722656 227.910156 Z M 258.535156 229.105469 L 254.945312 229.105469 L 254.945312 227.910156 L 258.535156 227.910156 Z M 254.347656 229.105469 L 250.761719 229.105469 L 250.761719 227.910156 L 254.347656 227.910156 Z M 250.164062 229.105469 L 246.574219 229.105469 L 246.574219 227.910156 L 250.164062 227.910156 Z M 245.976562 229.105469 L 242.390625 229.105469 L 242.390625 227.910156 L 245.976562 227.910156 Z M 241.792969 229.105469 L 238.203125 229.105469 L 238.203125 227.910156 L 241.792969 227.910156 Z M 237.605469 229.105469 L 234.015625 229.105469 L 234.015625 227.910156 L 237.605469 227.910156 Z M 233.417969 229.105469 L 229.832031 229.105469 L 229.832031 227.910156 L 233.417969 227.910156 Z M 229.234375 229.105469 L 225.644531 229.105469 L 225.644531 227.910156 L 229.234375 227.910156 Z M 225.046875 229.105469 L 221.460938 229.105469 L 221.460938 227.910156 L 225.046875 227.910156 Z M 220.859375 229.105469 L 217.273438 229.105469 L 217.273438 227.910156 L 220.859375 227.910156 Z M 216.675781 229.105469 L 213.085938 229.105469 L 213.085938 227.910156 L 216.675781 227.910156 Z M 212.488281 229.105469 L 208.902344 229.105469 L 208.902344 227.910156 L 212.488281 227.910156 Z M 208.304688 229.105469 L 204.714844 229.105469 L 204.714844 227.910156 L 208.304688 227.910156 Z M 204.117188 229.105469 L 200.53125 229.105469 L 200.53125 227.910156 L 204.117188 227.910156 Z M 199.929688 229.105469 L 196.34375 229.105469 L 196.34375 227.910156 L 199.929688 227.910156 Z M 195.746094 229.105469 L 192.15625 229.105469 L 192.15625 227.910156 L 195.746094 227.910156 Z M 191.558594 229.105469 L 187.972656 229.105469 L 187.972656 227.910156 L 191.558594 227.910156 Z M 187.375 229.105469 L 183.785156 229.105469 L 183.785156 227.910156 L 187.375 227.910156 Z M 183.1875 229.105469 L 179.597656 229.105469 L 179.597656 227.910156 L 183.1875 227.910156 Z M 179 229.105469 L 175.414062 229.105469 L 175.414062 227.910156 L 179 227.910156 Z M 174.816406 229.105469 L 171.226562 229.105469 L 171.226562 227.910156 L 174.816406 227.910156 Z M 170.628906 229.105469 L 167.042969 229.105469 L 167.042969 227.910156 L 170.628906 227.910156 Z M 166.445312 229.105469 L 164.894531 229.105469 C 164.1875 229.105469 163.484375 229.066406 162.785156 228.988281 L 162.917969 227.800781 C 163.574219 227.871094 164.234375 227.910156 164.894531 227.910156 L 166.445312 227.910156 Z M 162.171875 228.910156 C 160.945312 228.734375 159.746094 228.441406 158.578125 228.03125 L 158.972656 226.902344 C 160.070312 227.285156 161.191406 227.5625 162.34375 227.726562 Z M 158 227.816406 C 156.84375 227.371094 155.738281 226.816406 154.691406 226.152344 L 155.328125 225.144531 C 156.3125 225.761719 157.347656 226.28125 158.429688 226.703125 Z M 154.171875 225.816406 C 153.167969 225.132812 152.234375 224.363281 151.378906 223.503906 L 151.324219 223.449219 L 152.167969 222.605469 L 152.222656 222.660156 C 153.027344 223.464844 153.902344 224.1875 154.84375 224.824219 Z M 150.890625 223 C 150.046875 222.09375 149.296875 221.113281 148.644531 220.058594 L 149.660156 219.429688 C 150.273438 220.417969 150.976562 221.335938 151.765625 222.1875 Z M 148.328125 219.527344 C 147.710938 218.453125 147.199219 217.332031 146.800781 216.15625 L 147.933594 215.769531 C 148.308594 216.871094 148.785156 217.925781 149.363281 218.929688 Z M 146.609375 215.570312 C 146.25 214.382812 146.003906 213.175781 145.878906 211.945312 L 147.066406 211.820312 C 147.1875 212.976562 147.414062 214.109375 147.753906 215.21875 Z M 145.824219 211.328125 C 145.792969 210.882812 145.777344 210.433594 145.777344 209.988281 L 145.777344 207.691406 L 146.972656 207.691406 L 146.972656 209.988281 C 146.972656 210.40625 146.988281 210.824219 147.019531 211.242188 Z M 145.777344 207.09375 L 145.777344 203.503906 L 146.972656 203.503906 L 146.972656 207.09375 Z M 145.777344 202.90625 L 145.777344 199.316406 L 146.972656 199.316406 L 146.972656 202.90625 Z M 145.777344 198.71875 L 145.777344 195.132812 L 146.972656 195.132812 L 146.972656 198.71875 Z M 145.777344 194.535156 L 145.777344 190.945312 L 146.972656 190.945312 L 146.972656 194.535156 Z M 145.777344 190.347656 L 145.777344 186.761719 L 146.972656 186.761719 L 146.972656 190.347656 Z M 145.777344 186.160156 L 145.777344 182.574219 L 146.972656 182.574219 L 146.972656 186.160156 Z M 145.777344 181.976562 L 145.777344 178.386719 L 146.972656 178.386719 L 146.972656 181.976562 Z M 145.777344 177.789062 L 145.777344 174.203125 L 146.972656 174.203125 L 146.972656 177.789062 Z M 145.777344 173.605469 L 145.777344 170.015625 L 146.972656 170.015625 L 146.972656 173.605469 Z M 145.777344 169.417969 L 145.777344 165.832031 L 146.972656 165.832031 L 146.972656 169.417969 Z M 145.777344 165.230469 L 145.777344 161.644531 L 146.972656 161.644531 L 146.972656 165.230469 Z M 145.777344 161.046875 L 145.777344 157.457031 L 146.972656 157.457031 L 146.972656 161.046875 Z M 145.777344 156.859375 L 145.777344 153.273438 L 146.972656 153.273438 L 146.972656 156.859375 Z M 145.777344 152.675781 L 145.777344 149.085938 L 146.972656 149.085938 L 146.972656 152.675781 Z M 145.777344 148.488281 L 145.777344 144.898438 L 146.972656 144.898438 L 146.972656 148.488281 Z M 145.777344 144.300781 L 145.777344 140.714844 L 146.972656 140.714844 L 146.972656 144.300781 Z M 145.777344 140.117188 L 145.777344 136.527344 L 146.972656 136.527344 L 146.972656 140.117188 Z M 145.777344 135.929688 L 145.777344 132.34375 L 146.972656 132.34375 L 146.972656 135.929688 Z M 145.777344 131.746094 L 145.777344 128.15625 L 146.972656 128.15625 L 146.972656 131.746094 Z M 145.777344 127.558594 L 145.777344 123.96875 L 146.972656 123.96875 L 146.972656 127.558594 Z M 145.777344 123.371094 L 145.777344 121.523438 C 145.777344 120.921875 145.804688 120.320312 145.863281 119.722656 L 147.054688 119.832031 C 147 120.394531 146.972656 120.960938 146.972656 121.523438 L 146.972656 123.371094 Z M 145.929688 119.105469 C 146.085938 117.878906 146.363281 116.675781 146.75 115.5 L 147.886719 115.875 C 147.519531 116.980469 147.265625 118.105469 147.117188 119.257812 Z M 146.957031 114.917969 C 147.382812 113.753906 147.921875 112.644531 148.566406 111.585938 L 149.585938 112.207031 C 148.984375 113.199219 148.480469 114.238281 148.078125 115.332031 Z M 148.894531 111.058594 C 149.574219 110.023438 150.347656 109.058594 151.214844 108.171875 L 152.070312 109.007812 C 151.257812 109.839844 150.53125 110.742188 149.898438 111.714844 Z M 151.65625 107.734375 C 152.550781 106.875 153.519531 106.109375 154.5625 105.441406 L 155.207031 106.445312 C 154.230469 107.074219 153.324219 107.792969 152.484375 108.597656 Z M 155.089844 105.113281 C 156.152344 104.480469 157.265625 103.953125 158.433594 103.53125 L 158.839844 104.65625 C 157.746094 105.050781 156.699219 105.546875 155.703125 106.140625 Z M 159.019531 103.332031 C 160.199219 102.953125 161.402344 102.6875 162.632812 102.542969 L 162.773438 103.730469 C 161.621094 103.867188 160.492188 104.113281 159.386719 104.472656 Z M 163.246094 102.476562 C 163.796875 102.429688 164.34375 102.40625 164.894531 102.40625 L 168.484375 102.40625 L 168.484375 103.601562 L 164.894531 103.601562 C 164.378906 103.601562 163.863281 103.625 163.351562 103.671875 Z M 163.246094 102.476562 "/></g></g><g clip-rule="nonzero" clip-path="url(#a560deadd5)"><g clip-rule="nonzero" clip-path="url(#109458941f)"><g clip-rule="nonzero" clip-path="url(#844eb01aec)"><path style=" stroke:none;fill-rule:nonzero;fill:#ff914d;fill-opacity:1;" d="M 300.917969 43.222656 L 362.605469 54.625 L 355.308594 94.105469 L 293.621094 82.703125 Z M 300.917969 43.222656 "/></g></g></g><g clip-rule="nonzero" clip-path="url(#5a41af0ee0)"><g clip-rule="nonzero" clip-path="url(#c4601bf7ae)"><g clip-rule="nonzero" clip-path="url(#9f4bd96665)"><path style=" stroke:none;fill-rule:nonzero;fill:#ff914d;fill-opacity:1;" d="M 304.933594 47.417969 L 357.46875 57.128906 L 351.40625 89.933594 L 298.867188 80.222656 Z M 304.933594 47.417969 "/></g></g></g><g clip-rule="nonzero" clip-path="url(#ae486152cc)"><g clip-rule="nonzero" clip-path="url(#346f9e3583)"><g clip-rule="nonzero" clip-path="url(#f97c7a23bd)"><g clip-rule="nonzero" clip-path="url(#afa80e1350)"><path style=" stroke:none;fill-rule:nonzero;fill:#000000;fill-opacity:1;" d="M 348.894531 56.042969 C 350.140625 56.953125 351.230469 58.078125 352.164062 59.417969 L 350.941406 60.269531 C 350.105469 59.066406 349.128906 58.0625 348.015625 57.25 Z M 352.605469 60.085938 C 353.414062 61.386719 354.042969 62.800781 354.492188 64.339844 L 353.0625 64.757812 C 352.648438 63.351562 352.078125 62.058594 351.339844 60.875 Z M 354.699219 65.101562 C 355.066406 66.59375 355.253906 68.128906 355.257812 69.707031 L 353.765625 69.714844 C 353.761719 68.253906 353.589844 66.835938 353.25 65.460938 Z M 355.246094 70.484375 C 355.210938 71.507812 355.097656 72.53125 354.910156 73.550781 C 354.804688 74.109375 354.679688 74.664062 354.535156 75.207031 L 353.09375 74.820312 C 353.230469 74.3125 353.347656 73.800781 353.441406 73.28125 C 353.617188 72.332031 353.722656 71.382812 353.753906 70.433594 Z M 354.3125 75.96875 C 353.847656 77.460938 353.230469 78.863281 352.453125 80.175781 L 351.171875 79.417969 C 351.886719 78.203125 352.460938 76.90625 352.890625 75.523438 Z M 352.03125 80.859375 C 351.160156 82.203125 350.152344 83.390625 349.011719 84.417969 L 348.015625 83.3125 C 349.058594 82.371094 349.980469 81.285156 350.78125 80.050781 Z M 348.429688 84.921875 C 347.15625 85.964844 345.792969 86.765625 344.34375 87.320312 L 343.808594 85.929688 C 345.109375 85.429688 346.335938 84.707031 347.484375 83.765625 Z M 343.609375 87.582031 C 342.058594 88.078125 340.5 88.269531 338.921875 88.164062 L 339.023438 86.675781 C 340.410156 86.769531 341.785156 86.597656 343.15625 86.160156 Z M 338.128906 88.085938 C 337.925781 88.058594 337.722656 88.023438 337.523438 87.988281 L 333.679688 87.277344 L 333.953125 85.8125 L 337.792969 86.523438 C 337.972656 86.554688 338.148438 86.582031 338.324219 86.605469 Z M 332.949219 87.140625 L 328.550781 86.328125 L 328.820312 84.863281 L 333.21875 85.675781 Z M 327.816406 86.195312 L 323.417969 85.378906 L 323.6875 83.914062 L 328.085938 84.726562 Z M 322.683594 85.246094 L 318.285156 84.433594 L 318.554688 82.964844 L 322.953125 83.777344 Z M 317.550781 84.296875 L 313.152344 83.484375 L 313.421875 82.015625 L 317.820312 82.832031 Z M 312.417969 83.347656 L 312.257812 83.316406 C 310.742188 83.039062 309.320312 82.488281 307.996094 81.667969 L 308.78125 80.398438 C 309.949219 81.121094 311.195312 81.605469 312.527344 81.851562 L 312.691406 81.882812 Z M 307.335938 81.226562 C 306.078125 80.335938 304.972656 79.226562 304.027344 77.898438 L 305.238281 77.03125 C 306.089844 78.222656 307.074219 79.214844 308.199219 80.011719 Z M 303.578125 77.234375 C 302.753906 75.945312 302.109375 74.53125 301.644531 72.996094 L 303.074219 72.566406 C 303.496094 73.96875 304.085938 75.257812 304.835938 76.429688 Z M 301.433594 72.238281 C 301.050781 70.75 300.851562 69.214844 300.832031 67.632812 L 302.324219 67.617188 C 302.339844 69.078125 302.523438 70.492188 302.878906 71.867188 Z M 300.835938 66.855469 C 300.867188 65.777344 300.980469 64.699219 301.179688 63.621094 C 301.273438 63.117188 301.382812 62.621094 301.511719 62.132812 L 302.953125 62.507812 C 302.835938 62.964844 302.730469 63.425781 302.644531 63.890625 C 302.460938 64.890625 302.355469 65.894531 302.328125 66.898438 Z M 301.726562 61.367188 C 302.175781 59.875 302.78125 58.46875 303.542969 57.148438 L 304.835938 57.894531 C 304.132812 59.113281 303.570312 60.417969 303.152344 61.800781 Z M 303.960938 56.457031 C 304.820312 55.105469 305.820312 53.90625 306.953125 52.863281 L 307.960938 53.960938 C 306.925781 54.914062 306.011719 56.015625 305.222656 57.257812 Z M 307.523438 52.363281 C 308.785156 51.304688 310.140625 50.488281 311.585938 49.910156 L 312.136719 51.296875 C 310.839844 51.8125 309.621094 52.550781 308.480469 53.507812 Z M 312.316406 49.644531 C 313.859375 49.128906 315.417969 48.910156 316.992188 48.996094 L 316.910156 50.484375 C 315.527344 50.410156 314.152344 50.601562 312.789062 51.058594 Z M 317.785156 49.0625 C 318.046875 49.09375 318.304688 49.132812 318.566406 49.183594 L 322.246094 49.863281 L 321.976562 51.328125 L 318.292969 50.648438 C 318.066406 50.605469 317.839844 50.570312 317.609375 50.546875 Z M 322.980469 50 L 327.378906 50.8125 L 327.105469 52.277344 L 322.707031 51.464844 Z M 328.113281 50.945312 L 332.511719 51.761719 L 332.238281 53.226562 L 327.839844 52.414062 Z M 333.242188 51.894531 L 337.644531 52.707031 L 337.371094 54.175781 L 332.972656 53.363281 Z M 338.375 52.84375 L 342.777344 53.65625 L 342.503906 55.125 L 338.105469 54.308594 Z M 343.507812 53.792969 L 343.832031 53.851562 C 345.40625 54.144531 346.875 54.726562 348.242188 55.597656 L 347.4375 56.855469 C 346.234375 56.085938 344.945312 55.574219 343.5625 55.320312 L 343.238281 55.257812 Z M 343.507812 53.792969 "/></g></g></g></g><g clip-rule="nonzero" clip-path="url(#34c582033b)"><g clip-rule="nonzero" clip-path="url(#52fa527a97)"><g clip-rule="nonzero" clip-path="url(#bf40da74e0)"><g clip-rule="nonzero" clip-path="url(#3300c8ea55)"><path style=" stroke:none;fill-rule:nonzero;fill:#000000;fill-opacity:1;" d="M 43.75 233.699219 C 43.734375 233.839844 43.800781 233.972656 43.925781 234.03125 C 45.0625 234.550781 46.300781 234.859375 47.554688 234.9375 C 48.820312 235.019531 50.097656 234.875 51.324219 234.511719 C 52.527344 234.152344 53.667969 233.5625 54.671875 232.796875 C 55.683594 232.03125 56.574219 231.089844 57.273438 230.019531 C 57.453125 229.742188 57.625 229.457031 57.785156 229.160156 C 57.933594 228.886719 58.058594 228.605469 58.191406 228.324219 C 58.203125 228.296875 58.21875 228.265625 58.234375 228.238281 C 58.230469 228.242188 58.226562 228.246094 58.226562 228.246094 C 58.226562 228.246094 58.230469 228.242188 58.234375 228.238281 C 58.253906 228.195312 58.246094 228.21875 58.234375 228.234375 C 58.242188 228.222656 58.25 228.210938 58.253906 228.207031 C 58.265625 228.191406 58.277344 228.175781 58.289062 228.164062 C 58.292969 228.160156 58.296875 228.152344 58.304688 228.148438 C 58.308594 228.144531 58.308594 228.144531 58.3125 228.140625 C 58.316406 228.140625 58.320312 228.136719 58.320312 228.132812 C 58.328125 228.136719 58.351562 228.136719 58.359375 228.136719 C 58.367188 228.140625 58.390625 228.144531 58.398438 228.144531 C 58.46875 228.167969 58.542969 228.199219 58.613281 228.230469 C 58.960938 228.367188 59.3125 228.503906 59.660156 228.644531 C 59.828125 228.710938 60 228.777344 60.167969 228.84375 C 60.398438 228.9375 60.605469 228.757812 60.601562 228.519531 C 60.582031 227.015625 60.558594 225.511719 60.535156 224.003906 C 60.527344 223.578125 60.523438 223.148438 60.515625 222.722656 C 60.515625 222.613281 60.429688 222.511719 60.335938 222.472656 C 60.230469 222.425781 60.125 222.445312 60.03125 222.507812 C 59.832031 222.632812 59.632812 222.75 59.429688 222.867188 C 59.382812 222.894531 59.332031 222.921875 59.285156 222.949219 C 59.277344 222.953125 59.257812 222.964844 59.25 222.96875 C 59.21875 222.984375 59.191406 223 59.164062 223.015625 C 59.058594 223.074219 58.953125 223.128906 58.847656 223.183594 C 58.433594 223.394531 58.011719 223.59375 57.582031 223.769531 C 57.148438 223.949219 56.707031 224.109375 56.257812 224.25 C 56.035156 224.320312 55.8125 224.382812 55.589844 224.445312 C 55.5625 224.453125 55.539062 224.457031 55.511719 224.464844 C 55.5 224.46875 55.492188 224.46875 55.484375 224.472656 C 55.484375 224.472656 55.484375 224.472656 55.480469 224.472656 C 55.421875 224.488281 55.359375 224.503906 55.296875 224.519531 C 55.1875 224.546875 55.074219 224.574219 54.964844 224.597656 C 54.449219 224.710938 53.929688 224.800781 53.410156 224.863281 C 53.097656 224.902344 53.042969 225.332031 53.3125 225.464844 C 53.996094 225.789062 54.679688 226.117188 55.359375 226.441406 C 55.375 226.449219 55.386719 226.457031 55.398438 226.460938 C 55.398438 226.460938 55.402344 226.464844 55.402344 226.464844 C 55.402344 226.464844 55.402344 226.460938 55.402344 226.460938 C 55.402344 226.464844 55.402344 226.464844 55.40625 226.464844 C 55.414062 226.472656 55.421875 226.476562 55.429688 226.480469 C 55.445312 226.492188 55.457031 226.503906 55.472656 226.515625 C 55.472656 226.519531 55.476562 226.523438 55.484375 226.53125 C 55.496094 226.550781 55.511719 226.578125 55.53125 226.597656 C 55.515625 226.578125 55.511719 226.554688 55.53125 226.597656 C 55.53125 226.601562 55.535156 226.605469 55.539062 226.609375 C 55.535156 226.605469 55.53125 226.601562 55.53125 226.601562 C 55.535156 226.613281 55.539062 226.628906 55.546875 226.640625 C 55.546875 226.65625 55.550781 226.667969 55.550781 226.679688 C 55.554688 226.695312 55.554688 226.710938 55.554688 226.726562 C 55.546875 226.78125 55.542969 226.832031 55.53125 226.886719 C 55.53125 226.890625 55.53125 226.894531 55.527344 226.898438 C 55.523438 226.914062 55.515625 226.929688 55.511719 226.949219 C 55.5 226.972656 55.488281 226.996094 55.480469 227.019531 C 55.445312 227.070312 55.414062 227.125 55.382812 227.175781 C 55.308594 227.285156 55.234375 227.394531 55.160156 227.503906 C 54.859375 227.941406 54.53125 228.355469 54.179688 228.753906 C 54 228.953125 53.816406 229.148438 53.625 229.335938 C 53.601562 229.359375 53.578125 229.382812 53.554688 229.40625 C 53.546875 229.414062 53.53125 229.429688 53.519531 229.4375 C 53.472656 229.484375 53.425781 229.527344 53.375 229.574219 C 53.277344 229.664062 53.179688 229.753906 53.082031 229.839844 C 52.679688 230.1875 52.257812 230.511719 51.816406 230.808594 C 51.597656 230.953125 51.375 231.09375 51.144531 231.226562 C 51.09375 231.257812 51.039062 231.285156 50.988281 231.316406 C 50.976562 231.324219 50.941406 231.339844 50.933594 231.347656 C 50.902344 231.363281 50.867188 231.382812 50.832031 231.398438 C 50.714844 231.464844 50.597656 231.523438 50.480469 231.582031 C 49.523438 232.058594 48.519531 232.414062 47.496094 232.695312 C 47.433594 232.710938 47.371094 232.730469 47.304688 232.746094 C 47.273438 232.753906 47.242188 232.765625 47.210938 232.773438 C 47.203125 232.773438 47.195312 232.777344 47.1875 232.777344 C 47.179688 232.78125 47.160156 232.785156 47.148438 232.789062 C 47.019531 232.820312 46.890625 232.851562 46.761719 232.882812 C 46.503906 232.945312 46.246094 233.003906 45.988281 233.058594 C 45.464844 233.171875 44.9375 233.269531 44.410156 233.363281 C 44.28125 233.386719 44.152344 233.410156 44.023438 233.433594 C 43.890625 233.453125 43.765625 233.558594 43.75 233.699219 Z M 58.332031 228.132812 C 58.328125 228.132812 58.328125 228.132812 58.324219 228.132812 C 58.328125 228.132812 58.328125 228.132812 58.328125 228.132812 C 58.339844 228.132812 58.363281 228.132812 58.332031 228.132812 Z M 58.339844 228.132812 C 58.351562 228.128906 58.355469 228.128906 58.339844 228.132812 Z M 55.476562 226.519531 C 55.46875 226.507812 55.460938 226.5 55.476562 226.519531 Z M 55.523438 226.917969 C 55.523438 226.921875 55.523438 226.921875 55.523438 226.921875 C 55.523438 226.921875 55.523438 226.921875 55.523438 226.917969 Z M 55.523438 226.917969 "/></g></g></g></g><g clip-rule="nonzero" clip-path="url(#c71619bf56)"><g clip-rule="nonzero" clip-path="url(#002edee2fa)"><path style=" stroke:none;fill-rule:nonzero;fill:#fbd75d;fill-opacity:1;" d="M 41.117188 45.214844 L 132.6875 45.214844 L 132.6875 124.679688 L 41.117188 124.679688 Z M 41.117188 45.214844 "/></g></g><g style="fill:#000000;fill-opacity:1;"><g transform="translate(313.063182, 62.103664)"><path style="stroke:none" d="M 2.21875 -7.828125 L 5.875 -7.015625 C 5.96875 -6.992188 6.003906 -6.929688 5.984375 -6.828125 L 5.765625 -5.828125 C 5.742188 -5.722656 5.6875 -5.679688 5.59375 -5.703125 L 4.4375 -5.96875 L 2.984375 0.5 C 2.960938 0.601562 2.898438 0.644531 2.796875 0.625 L 1.765625 0.390625 C 1.648438 0.367188 1.601562 0.304688 1.625 0.203125 L 3.078125 -6.265625 L 1.9375 -6.515625 C 1.832031 -6.546875 1.789062 -6.613281 1.8125 -6.71875 L 2.03125 -7.71875 C 2.050781 -7.820312 2.113281 -7.859375 2.21875 -7.828125 Z M 2.21875 -7.828125 "/></g></g><g style="fill:#000000;fill-opacity:1;"><g transform="translate(317.42236, 63.076602)"><path style="stroke:none" d="M 0.796875 -1.328125 L 1.9375 -6.390625 C 2.039062 -6.867188 2.242188 -7.195312 2.546875 -7.375 C 2.847656 -7.5625 3.226562 -7.609375 3.6875 -7.515625 L 4.796875 -7.265625 C 5.265625 -7.160156 5.59375 -6.957031 5.78125 -6.65625 C 5.96875 -6.363281 6.007812 -5.976562 5.90625 -5.5 L 4.765625 -0.4375 C 4.660156 0.03125 4.460938 0.359375 4.171875 0.546875 C 3.878906 0.734375 3.5 0.773438 3.03125 0.671875 L 1.921875 0.421875 C 1.460938 0.328125 1.132812 0.128906 0.9375 -0.171875 C 0.738281 -0.472656 0.691406 -0.859375 0.796875 -1.328125 Z M 2.5 -0.78125 L 3.078125 -0.65625 C 3.335938 -0.59375 3.5 -0.691406 3.5625 -0.953125 L 4.578125 -5.53125 C 4.640625 -5.800781 4.539062 -5.96875 4.28125 -6.03125 L 3.703125 -6.15625 C 3.429688 -6.21875 3.265625 -6.113281 3.203125 -5.84375 L 2.1875 -1.265625 C 2.125 -1.003906 2.226562 -0.84375 2.5 -0.78125 Z M 2.5 -0.78125 "/></g></g><g style="fill:#000000;fill-opacity:1;"><g transform="translate(322.078767, 64.11588)"><path style="stroke:none" d="M 2.21875 -7.828125 L 5.875 -7.015625 C 5.96875 -6.992188 6.003906 -6.929688 5.984375 -6.828125 L 5.765625 -5.828125 C 5.742188 -5.722656 5.6875 -5.679688 5.59375 -5.703125 L 4.4375 -5.96875 L 2.984375 0.5 C 2.960938 0.601562 2.898438 0.644531 2.796875 0.625 L 1.765625 0.390625 C 1.648438 0.367188 1.601562 0.304688 1.625 0.203125 L 3.078125 -6.265625 L 1.9375 -6.515625 C 1.832031 -6.546875 1.789062 -6.613281 1.8125 -6.71875 L 2.03125 -7.71875 C 2.050781 -7.820312 2.113281 -7.859375 2.21875 -7.828125 Z M 2.21875 -7.828125 "/></g></g><g style="fill:#000000;fill-opacity:1;"><g transform="translate(325.744447, 64.934035)"><path style="stroke:none" d="M 5.28125 1.171875 L 4.21875 0.9375 C 4.132812 0.914062 4.09375 0.859375 4.09375 0.765625 L 4.140625 -0.75 L 2.390625 -1.140625 L 1.78125 0.25 C 1.738281 0.34375 1.675781 0.378906 1.59375 0.359375 L 0.53125 0.125 C 0.40625 0.09375 0.375 0.0234375 0.4375 -0.078125 L 3.796875 -7.34375 C 3.828125 -7.425781 3.890625 -7.457031 3.984375 -7.4375 L 5.359375 -7.140625 C 5.453125 -7.117188 5.5 -7.054688 5.5 -6.953125 L 5.4375 1.03125 C 5.4375 1.15625 5.382812 1.203125 5.28125 1.171875 Z M 4.140625 -1.9375 L 4.265625 -5.546875 L 2.875 -2.234375 Z M 4.140625 -1.9375 "/></g></g><g style="fill:#000000;fill-opacity:1;"><g transform="translate(331.550084, 66.229813)"><path style="stroke:none" d="M 2.140625 -0.90625 L 3.578125 -7.375 C 3.597656 -7.476562 3.550781 -7.539062 3.4375 -7.5625 L 2.421875 -7.796875 C 2.304688 -7.816406 2.238281 -7.773438 2.21875 -7.671875 L 0.515625 -0.046875 C 0.492188 0.0546875 0.539062 0.117188 0.65625 0.140625 L 4.203125 0.9375 C 4.304688 0.957031 4.367188 0.914062 4.390625 0.8125 L 4.609375 -0.171875 C 4.640625 -0.285156 4.601562 -0.351562 4.5 -0.375 Z M 2.140625 -0.90625 "/></g></g><g style="fill:#000000;fill-opacity:1;"><g transform="translate(336.305558, 67.291202)"><path style="stroke:none" d="M 2.140625 -0.90625 L 3.578125 -7.375 C 3.597656 -7.476562 3.550781 -7.539062 3.4375 -7.5625 L 2.421875 -7.796875 C 2.304688 -7.816406 2.238281 -7.773438 2.21875 -7.671875 L 0.515625 -0.046875 C 0.492188 0.0546875 0.539062 0.117188 0.65625 0.140625 L 4.203125 0.9375 C 4.304688 0.957031 4.367188 0.914062 4.390625 0.8125 L 4.609375 -0.171875 C 4.640625 -0.285156 4.601562 -0.351562 4.5 -0.375 Z M 2.140625 -0.90625 "/></g></g><g style="fill:#000000;fill-opacity:1;"><g transform="translate(339.773102, 68.065134)"><path style="stroke:none" d="M 5.8125 -7.03125 L 6.796875 -6.8125 C 6.867188 -6.800781 6.921875 -6.769531 6.953125 -6.71875 C 6.984375 -6.664062 6.972656 -6.609375 6.921875 -6.546875 L 4.125 -2.546875 L 3.4375 0.546875 C 3.40625 0.679688 3.320312 0.738281 3.1875 0.71875 L 2.21875 0.5 C 2.09375 0.46875 2.046875 0.382812 2.078125 0.25 L 2.765625 -2.84375 L 1.9375 -7.65625 C 1.9375 -7.726562 1.953125 -7.78125 1.984375 -7.8125 C 2.023438 -7.851562 2.078125 -7.867188 2.140625 -7.859375 L 3.140625 -7.625 C 3.253906 -7.601562 3.316406 -7.535156 3.328125 -7.421875 L 3.796875 -4.3125 L 5.546875 -6.9375 C 5.609375 -7.03125 5.695312 -7.0625 5.8125 -7.03125 Z M 5.8125 -7.03125 "/></g></g><g style="fill:#000000;fill-opacity:1;"><g transform="translate(315.158783, 76.438983)"><path style="stroke:none" d="M 6.1875 -6.78125 L 5.96875 -5.78125 C 5.945312 -5.675781 5.882812 -5.640625 5.78125 -5.671875 L 3.328125 -6.21875 L 2.875 -4.234375 L 4.734375 -3.8125 C 4.835938 -3.789062 4.878906 -3.722656 4.859375 -3.609375 L 4.640625 -2.625 C 4.609375 -2.519531 4.539062 -2.476562 4.4375 -2.5 L 2.578125 -2.921875 L 1.875 0.25 C 1.851562 0.351562 1.785156 0.394531 1.671875 0.375 L 0.65625 0.140625 C 0.539062 0.117188 0.492188 0.0546875 0.515625 -0.046875 L 2.21875 -7.671875 C 2.238281 -7.773438 2.304688 -7.816406 2.421875 -7.796875 L 6.0625 -6.984375 C 6.164062 -6.953125 6.207031 -6.882812 6.1875 -6.78125 Z M 6.1875 -6.78125 "/></g></g><g style="fill:#000000;fill-opacity:1;"><g transform="translate(319.914258, 77.500372)"><path style="stroke:none" d="M 6.03125 -5.484375 L 5.484375 -3.078125 C 5.335938 -2.410156 5 -2.023438 4.46875 -1.921875 L 4.578125 0.828125 C 4.578125 0.953125 4.515625 1.003906 4.390625 0.984375 L 3.359375 0.75 C 3.265625 0.726562 3.21875 0.671875 3.21875 0.578125 L 3.125 -2.09375 L 2.4375 -2.25 L 1.875 0.25 C 1.851562 0.351562 1.785156 0.394531 1.671875 0.375 L 0.65625 0.140625 C 0.539062 0.117188 0.492188 0.0546875 0.515625 -0.046875 L 2.21875 -7.671875 C 2.238281 -7.773438 2.304688 -7.816406 2.421875 -7.796875 L 4.90625 -7.234375 C 5.375 -7.128906 5.703125 -6.929688 5.890625 -6.640625 C 6.085938 -6.347656 6.132812 -5.960938 6.03125 -5.484375 Z M 2.734375 -3.5625 L 3.71875 -3.34375 C 3.976562 -3.28125 4.132812 -3.378906 4.1875 -3.640625 L 4.609375 -5.5 C 4.671875 -5.769531 4.570312 -5.9375 4.3125 -6 L 3.328125 -6.21875 Z M 2.734375 -3.5625 "/></g></g><g style="fill:#000000;fill-opacity:1;"><g transform="translate(324.976862, 78.63031)"><path style="stroke:none" d="M 6.1875 -6.78125 L 5.96875 -5.78125 C 5.945312 -5.675781 5.878906 -5.640625 5.765625 -5.671875 L 3.296875 -6.21875 L 2.84375 -4.234375 L 4.734375 -3.8125 C 4.835938 -3.789062 4.878906 -3.71875 4.859375 -3.59375 L 4.640625 -2.625 C 4.609375 -2.507812 4.539062 -2.460938 4.4375 -2.484375 L 2.546875 -2.90625 L 2.109375 -0.90625 L 4.578125 -0.359375 C 4.691406 -0.328125 4.734375 -0.253906 4.703125 -0.140625 L 4.484375 0.84375 C 4.460938 0.945312 4.394531 0.984375 4.28125 0.953125 L 0.640625 0.140625 C 0.535156 0.117188 0.492188 0.0546875 0.515625 -0.046875 L 2.21875 -7.671875 C 2.238281 -7.773438 2.300781 -7.816406 2.40625 -7.796875 L 6.046875 -6.984375 C 6.160156 -6.953125 6.207031 -6.882812 6.1875 -6.78125 Z M 6.1875 -6.78125 "/></g></g><g style="fill:#000000;fill-opacity:1;"><g transform="translate(329.92057, 79.733712)"><path style="stroke:none" d="M 6.1875 -6.78125 L 5.96875 -5.78125 C 5.945312 -5.675781 5.878906 -5.640625 5.765625 -5.671875 L 3.296875 -6.21875 L 2.84375 -4.234375 L 4.734375 -3.8125 C 4.835938 -3.789062 4.878906 -3.71875 4.859375 -3.59375 L 4.640625 -2.625 C 4.609375 -2.507812 4.539062 -2.460938 4.4375 -2.484375 L 2.546875 -2.90625 L 2.109375 -0.90625 L 4.578125 -0.359375 C 4.691406 -0.328125 4.734375 -0.253906 4.703125 -0.140625 L 4.484375 0.84375 C 4.460938 0.945312 4.394531 0.984375 4.28125 0.953125 L 0.640625 0.140625 C 0.535156 0.117188 0.492188 0.0546875 0.515625 -0.046875 L 2.21875 -7.671875 C 2.238281 -7.773438 2.300781 -7.816406 2.40625 -7.796875 L 6.046875 -6.984375 C 6.160156 -6.953125 6.207031 -6.882812 6.1875 -6.78125 Z M 6.1875 -6.78125 "/></g></g><g style="fill:#000000;fill-opacity:1;"><g transform="translate(334.864278, 80.837113)"><path style="stroke:none" d="M 2.375 -7.796875 L 3.4375 -7.5625 C 3.550781 -7.539062 3.597656 -7.476562 3.578125 -7.375 L 2.296875 -1.96875 C 2.273438 -1.875 2.210938 -1.835938 2.109375 -1.859375 L 1.171875 -2.0625 C 1.066406 -2.09375 1.023438 -2.15625 1.046875 -2.25 L 2.171875 -7.6875 C 2.191406 -7.789062 2.257812 -7.828125 2.375 -7.796875 Z M 0.53125 -0.09375 L 0.734375 -1 C 0.765625 -1.132812 0.847656 -1.1875 0.984375 -1.15625 L 1.890625 -0.953125 C 2.023438 -0.921875 2.078125 -0.835938 2.046875 -0.703125 L 1.84375 0.203125 C 1.8125 0.335938 1.726562 0.390625 1.59375 0.359375 L 0.6875 0.15625 C 0.550781 0.125 0.5 0.0390625 0.53125 -0.09375 Z M 0.53125 -0.09375 "/></g></g></g></svg>