<svg xmlns="http://www.w3.org/2000/svg" xmlns:xlink="http://www.w3.org/1999/xlink" width="1000" zoomAndPan="magnify" viewBox="0 0 750 337.499995" height="450" preserveAspectRatio="xMidYMid meet" version="1.2"><defs><clipPath id="34b337513d"><path d="M 124 7.019531 L 749 7.019531 L 749 329.792969 L 124 329.792969 Z M 124 7.019531 "/></clipPath></defs><g id="fd0d7ccf40"><g clip-rule="nonzero" clip-path="url(#34b337513d)"><path style=" stroke:none;fill-rule:nonzero;fill:#f20028;fill-opacity:1;" d="M 747.167969 76.277344 C 746.90625 38.167969 715.523438 7.03125 677.394531 7.265625 L 272.097656 8.777344 C 245.03125 8.84375 221.570312 24.679688 210.3125 47.488281 L 209.554688 47.710938 L 124.496094 175.601562 L 222.4375 307.5 L 222.628906 306.898438 C 235.402344 320.835938 253.785156 329.625 274.058594 329.550781 L 679.320312 327.945312 C 717.453125 327.875 748.496094 296.507812 748.269531 258.402344 Z M 747.167969 76.277344 "/></g><path style=" stroke:none;fill-rule:nonzero;fill:#ffffff;fill-opacity:1;" d="M 223.199219 146.957031 C 234.992188 154.460938 238.589844 169.992188 231.160156 181.808594 C 223.769531 193.554688 208.1875 197.113281 196.402344 189.6875 C 184.617188 182.34375 181.054688 166.8125 188.441406 154.988281 C 195.871094 143.171875 211.449219 139.53125 223.199219 146.957031 Z M 223.199219 146.957031 "/><path style=" stroke:none;fill-rule:nonzero;fill:#ffffff;fill-opacity:1;" d="M 163.1875 185.914062 C 162.425781 185.914062 161.667969 185.574219 161.160156 184.929688 L 153.171875 174.777344 C 152.46875 173.882812 152.429688 172.621094 153.089844 171.691406 L 160.53125 161.132812 C 161.351562 159.964844 162.964844 159.691406 164.128906 160.511719 C 165.292969 161.335938 165.574219 162.941406 164.757812 164.113281 L 158.421875 173.09375 L 165.21875 181.722656 C 166.101562 182.851562 165.902344 184.476562 164.785156 185.351562 C 164.3125 185.730469 163.75 185.914062 163.1875 185.914062 Z M 163.1875 185.914062 "/><path style=" stroke:none;fill-rule:nonzero;fill:#ffffff;fill-opacity:1;" d="M 222.335938 261.070312 C 221.570312 261.070312 220.816406 260.730469 220.308594 260.082031 L 205.523438 241.292969 C 204.640625 240.175781 204.835938 238.546875 205.957031 237.671875 C 207.078125 236.789062 208.703125 236.984375 209.589844 238.101562 L 224.375 256.886719 C 225.257812 258.011719 225.058594 259.632812 223.9375 260.515625 C 223.457031 260.886719 222.894531 261.070312 222.335938 261.070312 Z M 192.761719 223.492188 C 191.996094 223.492188 191.242188 223.152344 190.730469 222.507812 L 175.945312 203.722656 C 175.066406 202.59375 175.253906 200.976562 176.378906 200.09375 C 177.5 199.214844 179.128906 199.410156 180.007812 200.523438 L 194.792969 219.3125 C 195.675781 220.433594 195.476562 222.058594 194.359375 222.941406 C 193.882812 223.316406 193.320312 223.492188 192.761719 223.492188 Z M 192.761719 223.492188 "/><path style=" stroke:none;fill-rule:nonzero;fill:#ffffff;fill-opacity:1;" d="M 255.160156 297.867188 C 254.65625 297.867188 254.152344 297.722656 253.707031 297.417969 C 250.449219 295.203125 247.402344 292.699219 244.625 289.960938 C 244.023438 289.851562 243.46875 289.511719 243.082031 289.023438 L 235.09375 278.875 C 234.210938 277.753906 234.402344 276.125 235.527344 275.246094 C 236.648438 274.363281 238.269531 274.5625 239.152344 275.683594 L 246.109375 284.523438 C 246.5 284.652344 246.863281 284.878906 247.160156 285.183594 C 250.003906 288.136719 253.179688 290.820312 256.613281 293.152344 C 257.792969 293.957031 258.101562 295.5625 257.296875 296.738281 C 256.792969 297.46875 255.980469 297.867188 255.160156 297.867188 Z M 255.160156 297.867188 "/><path style=" stroke:none;fill-rule:nonzero;fill:#ffffff;fill-opacity:1;" d="M 291.929688 309.105469 C 287.417969 309.105469 282.898438 308.664062 278.507812 307.792969 C 277.109375 307.511719 276.199219 306.160156 276.480469 304.757812 C 276.757812 303.355469 278.117188 302.457031 279.515625 302.730469 C 283.578125 303.542969 287.753906 303.941406 291.929688 303.941406 L 304.964844 303.890625 C 304.964844 303.890625 304.96875 303.890625 304.976562 303.890625 C 306.398438 303.890625 307.558594 305.046875 307.5625 306.464844 C 307.566406 307.902344 306.410156 309.058594 304.984375 309.0625 Z M 331.019531 308.957031 C 329.589844 308.957031 328.441406 307.8125 328.4375 306.386719 C 328.433594 304.953125 329.582031 303.789062 331.011719 303.785156 L 357.054688 303.695312 C 357.054688 303.695312 357.058594 303.695312 357.058594 303.695312 C 358.484375 303.695312 359.640625 304.839844 359.648438 306.265625 C 359.652344 307.691406 358.496094 308.855469 357.070312 308.867188 L 331.027344 308.957031 C 331.023438 308.957031 331.019531 308.957031 331.019531 308.957031 Z M 383.097656 308.769531 C 381.675781 308.769531 380.519531 307.613281 380.515625 306.191406 C 380.511719 304.761719 381.664062 303.601562 383.089844 303.597656 L 409.136719 303.503906 C 409.136719 303.503906 409.140625 303.503906 409.144531 303.503906 C 410.566406 303.503906 411.722656 304.648438 411.730469 306.078125 C 411.734375 307.503906 410.582031 308.664062 409.152344 308.671875 L 383.113281 308.769531 C 383.105469 308.769531 383.105469 308.769531 383.097656 308.769531 Z M 435.183594 308.574219 C 433.761719 308.574219 432.605469 307.421875 432.597656 306.003906 C 432.59375 304.570312 433.746094 303.417969 435.175781 303.40625 L 461.214844 303.3125 C 462.550781 303.34375 463.808594 304.457031 463.8125 305.886719 C 463.8125 307.3125 462.660156 308.472656 461.234375 308.476562 L 435.191406 308.574219 C 435.1875 308.574219 435.1875 308.574219 435.183594 308.574219 Z M 487.265625 308.386719 C 485.839844 308.386719 484.6875 307.234375 484.679688 305.808594 C 484.675781 304.386719 485.828125 303.222656 487.253906 303.21875 L 513.292969 303.121094 C 513.300781 303.121094 513.300781 303.121094 513.304688 303.121094 C 514.726562 303.121094 515.882812 304.277344 515.886719 305.691406 C 515.890625 307.125 514.738281 308.285156 513.3125 308.289062 L 487.269531 308.386719 C 487.273438 308.386719 487.269531 308.386719 487.265625 308.386719 Z M 539.347656 308.195312 C 537.925781 308.195312 536.769531 307.050781 536.765625 305.621094 C 536.761719 304.191406 537.917969 303.027344 539.339844 303.023438 L 565.378906 302.925781 C 565.382812 302.925781 565.382812 302.925781 565.390625 302.925781 C 566.816406 302.925781 567.96875 304.082031 567.972656 305.507812 C 567.976562 306.933594 566.824219 308.09375 565.398438 308.097656 L 539.351562 308.195312 C 539.351562 308.195312 539.347656 308.195312 539.347656 308.195312 Z M 591.433594 308.007812 C 590.011719 308.007812 588.855469 306.855469 588.851562 305.429688 C 588.847656 304 589.996094 302.84375 591.425781 302.835938 L 617.464844 302.738281 C 617.46875 302.738281 617.46875 302.738281 617.472656 302.738281 C 618.894531 302.738281 620.050781 303.886719 620.054688 305.316406 C 620.0625 306.742188 618.910156 307.902344 617.484375 307.910156 L 591.441406 308.007812 C 591.4375 308.007812 591.433594 308.007812 591.433594 308.007812 Z M 643.511719 307.816406 C 642.089844 307.816406 640.933594 306.664062 640.929688 305.242188 C 640.925781 303.808594 642.078125 302.648438 643.503906 302.644531 L 664.382812 302.566406 C 666.027344 302.5625 667.695312 302.492188 669.34375 302.363281 C 670.765625 302.226562 672.011719 303.316406 672.121094 304.734375 C 672.234375 306.164062 671.175781 307.402344 669.746094 307.515625 C 667.972656 307.65625 666.171875 307.730469 664.398438 307.734375 L 643.523438 307.816406 C 643.523438 307.816406 643.519531 307.816406 643.511719 307.816406 Z M 694.4375 300.476562 C 693.5 300.476562 692.597656 299.96875 692.136719 299.070312 C 691.484375 297.804688 691.984375 296.253906 693.25 295.59375 C 700.691406 291.765625 707.359375 286.382812 712.535156 280.019531 C 713.4375 278.910156 715.066406 278.75 716.171875 279.644531 C 717.28125 280.542969 717.449219 282.171875 716.550781 283.273438 C 710.921875 290.1875 703.6875 296.035156 695.621094 300.183594 C 695.242188 300.378906 694.835938 300.476562 694.4375 300.476562 Z M 726.078125 261.140625 C 725.878906 261.140625 725.675781 261.121094 725.472656 261.070312 C 724.085938 260.734375 723.238281 259.335938 723.570312 257.953125 C 724.566406 253.824219 725.070312 249.578125 725.070312 245.328125 L 724.988281 232.675781 C 724.980469 231.253906 726.125 230.085938 727.550781 230.074219 C 727.558594 230.074219 727.5625 230.074219 727.570312 230.074219 C 728.992188 230.074219 730.144531 231.226562 730.152344 232.640625 L 730.230469 245.328125 C 730.230469 249.984375 729.675781 254.644531 728.589844 259.160156 C 728.300781 260.347656 727.246094 261.140625 726.078125 261.140625 Z M 727.398438 209.222656 C 725.984375 209.222656 724.824219 208.078125 724.816406 206.648438 L 724.652344 180.621094 C 724.644531 179.199219 725.792969 178.035156 727.21875 178.019531 C 727.222656 178.019531 727.234375 178.019531 727.238281 178.019531 C 728.660156 178.019531 729.8125 179.171875 729.820312 180.59375 L 729.992188 206.617188 C 730 208.050781 728.851562 209.207031 727.421875 209.21875 C 727.414062 209.222656 727.402344 209.222656 727.398438 209.222656 Z M 727.0625 157.167969 C 725.644531 157.167969 724.488281 156.023438 724.480469 154.59375 L 724.308594 128.570312 C 724.300781 127.144531 725.453125 125.980469 726.882812 125.972656 C 726.886719 125.972656 726.890625 125.972656 726.894531 125.972656 C 728.3125 125.972656 729.472656 127.113281 729.484375 128.539062 L 729.648438 154.566406 C 729.660156 155.988281 728.511719 157.160156 727.085938 157.167969 C 727.074219 157.167969 727.070312 157.167969 727.0625 157.167969 Z M 177.734375 143.800781 C 177.21875 143.800781 176.703125 143.648438 176.25 143.324219 C 175.085938 142.496094 174.800781 140.890625 175.625 139.722656 L 190.621094 118.449219 C 191.445312 117.28125 193.058594 117.003906 194.222656 117.824219 C 195.386719 118.652344 195.667969 120.253906 194.851562 121.421875 L 179.851562 142.699219 C 179.34375 143.417969 178.542969 143.800781 177.734375 143.800781 Z M 726.726562 105.117188 C 725.300781 105.117188 724.152344 103.972656 724.140625 102.546875 L 724.039062 87.128906 C 724.023438 83.75 723.683594 80.371094 723.042969 77.074219 C 722.769531 75.671875 723.683594 74.3125 725.085938 74.046875 C 726.484375 73.777344 727.839844 74.6875 728.117188 76.082031 C 728.816406 79.691406 729.1875 83.394531 729.207031 87.09375 L 729.308594 102.519531 C 729.316406 103.945312 728.167969 105.109375 726.738281 105.117188 C 726.738281 105.117188 726.730469 105.117188 726.726562 105.117188 Z M 207.726562 101.238281 C 207.214844 101.238281 206.691406 101.085938 206.238281 100.769531 C 205.074219 99.941406 204.792969 98.339844 205.613281 97.167969 L 220.613281 75.894531 C 221.433594 74.722656 223.042969 74.449219 224.210938 75.269531 C 225.375 76.089844 225.65625 77.703125 224.835938 78.867188 L 209.839844 100.144531 C 209.339844 100.859375 208.539062 101.238281 207.726562 101.238281 Z M 237.554688 58.773438 C 237.054688 58.773438 236.546875 58.628906 236.105469 58.324219 C 234.925781 57.519531 234.621094 55.914062 235.429688 54.734375 C 240.441406 47.398438 247.191406 40.984375 254.945312 36.195312 C 256.15625 35.445312 257.75 35.824219 258.503906 37.035156 C 259.253906 38.253906 258.878906 39.839844 257.664062 40.59375 C 250.523438 45.003906 244.308594 50.902344 239.699219 57.652344 C 239.191406 58.382812 238.382812 58.773438 237.554688 58.773438 Z M 715.066406 55.59375 C 714.28125 55.59375 713.5 55.234375 712.992188 54.554688 C 708.101562 47.980469 701.671875 42.316406 694.398438 38.167969 C 693.160156 37.464844 692.730469 35.886719 693.4375 34.644531 C 694.144531 33.40625 695.722656 32.976562 696.960938 33.679688 C 704.851562 38.179688 711.824219 44.328125 717.140625 51.464844 C 717.992188 52.609375 717.757812 54.230469 716.609375 55.082031 C 716.144531 55.433594 715.605469 55.59375 715.066406 55.59375 Z M 280.566406 32.023438 C 279.3125 32.023438 278.214844 31.117188 278.011719 29.835938 C 277.792969 28.433594 278.753906 27.109375 280.164062 26.890625 C 283.601562 26.339844 287.125 26.058594 290.652344 26.035156 L 306.554688 25.980469 C 306.554688 25.980469 306.558594 25.980469 306.5625 25.980469 C 307.988281 25.980469 309.140625 27.128906 309.148438 28.558594 C 309.152344 29.980469 307.996094 31.144531 306.574219 31.148438 L 290.675781 31.203125 C 287.417969 31.222656 284.15625 31.488281 280.972656 31.988281 C 280.828125 32.011719 280.695312 32.023438 280.566406 32.023438 Z M 332.605469 31.058594 C 331.179688 31.058594 330.027344 29.90625 330.019531 28.484375 C 330.015625 27.058594 331.171875 25.898438 332.59375 25.894531 L 358.640625 25.800781 C 358.640625 25.800781 358.644531 25.800781 358.648438 25.800781 C 360.070312 25.800781 361.226562 26.957031 361.230469 28.371094 C 361.234375 29.804688 360.082031 30.964844 358.65625 30.96875 L 332.617188 31.058594 C 332.609375 31.058594 332.609375 31.058594 332.605469 31.058594 Z M 384.6875 30.878906 C 383.265625 30.878906 382.105469 29.730469 382.101562 28.304688 C 382.097656 26.882812 383.25 25.714844 384.679688 25.714844 L 410.71875 25.617188 C 410.722656 25.617188 410.722656 25.617188 410.730469 25.617188 C 412.152344 25.617188 413.308594 26.769531 413.316406 28.191406 C 413.320312 29.625 412.164062 30.777344 410.738281 30.78125 L 384.699219 30.878906 C 384.695312 30.878906 384.695312 30.878906 384.6875 30.878906 Z M 436.769531 30.699219 C 435.347656 30.699219 434.1875 29.550781 434.179688 28.117188 C 434.179688 26.695312 435.332031 25.53125 436.757812 25.527344 L 462.800781 25.4375 C 462.804688 25.4375 462.804688 25.4375 462.808594 25.4375 C 464.238281 25.4375 465.386719 26.585938 465.390625 28.011719 C 465.394531 29.4375 464.246094 30.601562 462.816406 30.609375 L 436.773438 30.699219 C 436.777344 30.699219 436.773438 30.699219 436.769531 30.699219 Z M 488.851562 30.519531 C 487.429688 30.519531 486.269531 29.371094 486.265625 27.941406 C 486.261719 26.515625 487.417969 25.347656 488.84375 25.347656 L 514.882812 25.253906 C 514.890625 25.253906 514.890625 25.253906 514.894531 25.253906 C 516.316406 25.253906 517.472656 26.40625 517.476562 27.835938 C 517.480469 29.257812 516.332031 30.421875 514.902344 30.425781 L 488.859375 30.519531 C 488.859375 30.519531 488.851562 30.519531 488.851562 30.519531 Z M 671.121094 30.40625 C 671.019531 30.40625 670.910156 30.398438 670.804688 30.386719 C 668.253906 30.078125 665.648438 29.910156 663.050781 29.910156 L 645.113281 29.96875 C 645.109375 29.96875 645.109375 29.96875 645.101562 29.96875 C 643.675781 29.96875 642.519531 28.824219 642.515625 27.398438 C 642.511719 25.976562 643.664062 24.808594 645.09375 24.808594 L 663.058594 24.742188 C 665.855469 24.742188 668.675781 24.914062 671.433594 25.246094 C 672.851562 25.417969 673.859375 26.707031 673.6875 28.117188 C 673.523438 29.445312 672.414062 30.40625 671.121094 30.40625 Z M 540.9375 30.339844 C 539.515625 30.339844 538.355469 29.183594 538.351562 27.769531 C 538.347656 26.332031 539.5 25.171875 540.929688 25.171875 L 566.96875 25.082031 C 566.96875 25.082031 566.972656 25.082031 566.976562 25.082031 C 568.402344 25.082031 569.554688 26.230469 569.5625 27.65625 C 569.566406 29.078125 568.410156 30.242188 566.988281 30.246094 L 540.949219 30.339844 C 540.941406 30.339844 540.9375 30.339844 540.9375 30.339844 Z M 593.019531 30.160156 C 591.59375 30.160156 590.433594 29.003906 590.429688 27.582031 C 590.425781 26.15625 591.578125 24.996094 593.003906 24.992188 L 619.050781 24.898438 C 619.050781 24.898438 619.054688 24.898438 619.058594 24.898438 C 620.480469 24.898438 621.636719 26.050781 621.640625 27.472656 C 621.644531 28.902344 620.492188 30.0625 619.066406 30.066406 L 593.027344 30.160156 C 593.023438 30.160156 593.023438 30.160156 593.019531 30.160156 Z M 593.019531 30.160156 "/><path style=" stroke:none;fill-rule:nonzero;fill:#ffffff;fill-opacity:1;" d="M 375.152344 119.386719 L 308.519531 119.308594 C 303.855469 119.308594 300.105469 115.59375 300.140625 110.972656 C 300.105469 106.351562 303.820312 102.5625 308.554688 102.5625 L 375.1875 102.644531 C 379.886719 102.5625 383.601562 106.355469 383.601562 111.050781 C 383.566406 115.671875 379.886719 119.386719 375.152344 119.386719 Z M 375.152344 119.386719 "/><path style=" stroke:none;fill-rule:nonzero;fill:#ffffff;fill-opacity:1;" d="M 364.234375 176.425781 L 308.480469 176.425781 C 303.78125 176.355469 300.066406 172.566406 300.066406 168.023438 C 300.066406 163.328125 303.789062 159.613281 308.523438 159.613281 L 364.242188 159.691406 C 368.984375 159.691406 372.730469 163.410156 372.730469 168.097656 C 372.765625 172.640625 368.9375 176.425781 364.234375 176.425781 Z M 364.234375 176.425781 "/><path style=" stroke:none;fill-rule:nonzero;fill:#ffffff;fill-opacity:1;" d="M 308.441406 232.269531 C 303.703125 232.269531 300.027344 228.554688 300.027344 223.933594 L 300.140625 110.972656 C 300.105469 106.351562 303.820312 102.5625 308.554688 102.5625 C 313.179688 102.5625 316.933594 106.351562 316.933594 110.972656 L 316.820312 223.933594 C 316.820312 228.554688 312.992188 232.269531 308.441406 232.269531 Z M 308.441406 232.269531 "/><path style=" stroke:none;fill-rule:nonzero;fill:#ffffff;fill-opacity:1;" d="M 570.203125 119.542969 L 514.410156 119.542969 C 509.746094 119.542969 505.996094 115.746094 505.957031 111.199219 C 505.996094 106.503906 509.785156 102.796875 514.410156 102.796875 L 570.203125 102.863281 C 574.863281 102.863281 578.542969 106.507812 578.542969 111.277344 C 578.542969 115.898438 574.828125 119.542969 570.203125 119.542969 Z M 570.203125 119.542969 "/><path style=" stroke:none;fill-rule:nonzero;fill:#ffffff;fill-opacity:1;" d="M 570.167969 176.664062 L 514.296875 176.585938 C 509.710938 176.664062 505.921875 172.796875 505.921875 168.246094 C 505.921875 163.621094 509.75 159.839844 514.296875 159.765625 L 570.167969 159.839844 C 574.785156 159.839844 578.542969 163.621094 578.503906 168.328125 C 578.5 172.871094 574.785156 176.664062 570.167969 176.664062 Z M 570.167969 176.664062 "/><path style=" stroke:none;fill-rule:nonzero;fill:#ffffff;fill-opacity:1;" d="M 570.09375 232.574219 L 514.21875 232.496094 C 509.671875 232.496094 505.84375 228.777344 505.878906 224.085938 L 505.957031 111.199219 C 505.996094 106.503906 509.785156 102.796875 514.410156 102.796875 C 519.035156 102.796875 522.785156 106.507812 522.785156 111.199219 L 522.675781 215.675781 L 570.128906 215.75 C 574.75 215.75 578.464844 219.546875 578.464844 224.164062 C 578.464844 228.78125 574.75 232.574219 570.09375 232.574219 Z M 570.09375 232.574219 "/><path style=" stroke:none;fill-rule:nonzero;fill:#ffffff;fill-opacity:1;" d="M 657.117188 119.6875 L 601.132812 119.613281 C 596.621094 119.613281 592.792969 115.894531 592.792969 111.199219 C 592.792969 106.578125 596.621094 102.859375 601.167969 102.859375 L 657.152344 102.859375 C 661.742188 102.859375 665.527344 106.652344 665.527344 111.355469 C 665.492188 115.898438 661.777344 119.6875 657.117188 119.6875 Z M 657.117188 119.6875 "/><path style=" stroke:none;fill-rule:nonzero;fill:#ffffff;fill-opacity:1;" d="M 657.078125 176.738281 L 601.09375 176.664062 C 596.507812 176.664062 592.753906 172.871094 592.792969 168.328125 C 592.753906 163.621094 596.507812 159.839844 601.09375 159.925781 L 657.078125 160 C 661.699219 160 665.457031 163.707031 665.457031 168.332031 C 665.449219 172.871094 661.699219 176.738281 657.078125 176.738281 Z M 657.078125 176.738281 "/><path style=" stroke:none;fill-rule:nonzero;fill:#ffffff;fill-opacity:1;" d="M 657.035156 232.574219 L 601.054688 232.574219 C 596.429688 232.574219 592.714844 228.78125 592.714844 224.238281 L 592.792969 111.199219 C 592.792969 106.578125 596.621094 102.859375 601.167969 102.859375 C 605.867188 102.859375 609.582031 106.578125 609.625 111.273438 L 609.546875 215.746094 L 657.035156 215.824219 C 661.625 215.824219 665.414062 219.546875 665.414062 224.238281 C 665.414062 228.859375 661.589844 232.574219 657.035156 232.574219 Z M 657.035156 232.574219 "/><path style=" stroke:none;fill-rule:nonzero;fill:#ffffff;fill-opacity:1;" d="M 473.355469 232.421875 C 470.972656 232.421875 468.738281 231.4375 467.070312 229.542969 L 416.542969 171.363281 L 416.503906 223.9375 C 416.503906 228.644531 412.753906 232.347656 408.054688 232.425781 C 403.464844 232.347656 399.714844 228.644531 399.714844 223.9375 L 399.789062 111.054688 C 399.789062 106.960938 402.820312 103.410156 406.914062 102.722656 C 411.691406 102.042969 453.53125 96.207031 472.75 114.167969 C 479.648438 120.75 482.832031 129.683594 481.847656 140.230469 C 482.265625 141.667969 481.207031 146.96875 476.84375 151.667969 C 469.34375 159.699219 454.75 163.789062 432.421875 164.09375 L 479.6875 218.484375 C 482.753906 222.046875 482.339844 227.351562 478.851562 230.382812 C 477.265625 231.816406 475.328125 232.421875 473.355469 232.421875 Z M 416.582031 146.804688 C 460.207031 149.386719 465.058594 139.53125 465.058594 139.3125 C 465.816406 131.578125 463.203125 128.246094 461.117188 126.347656 C 451.980469 117.71875 429.621094 117.566406 416.582031 118.550781 Z M 416.582031 146.804688 "/><path style=" stroke:none;fill-rule:nonzero;fill:#7f4f21;fill-opacity:1;" d="M 190.667969 167.347656 C 188.855469 167.347656 187.015625 166.976562 185.257812 166.175781 C 107.355469 130.648438 22.125 164.023438 21.269531 164.367188 C 14.585938 167.035156 6.984375 163.804688 4.300781 157.136719 C 1.609375 150.457031 4.835938 142.871094 11.511719 140.175781 C 15.398438 138.601562 107.785156 102.164062 196.097656 142.441406 C 202.652344 145.433594 205.546875 153.167969 202.546875 159.726562 C 200.355469 164.519531 195.621094 167.347656 190.667969 167.347656 Z M 190.667969 167.347656 "/></g></svg>